<?xml version="1.0" encoding="UTF-8"?>
<svg width="778px" height="778px" viewBox="0 0 778 778" version="1.1" xmlns="http://www.w3.org/2000/svg" xmlns:xlink="http://www.w3.org/1999/xlink">
    <!-- Generator: Sketch 55.2 (78181) - https://sketchapp.com -->
    <title>logo-bg</title>
    <desc>Created with Sketch.</desc>
    <style>
      @media (prefers-color-scheme: dark) {
        circle {
          fill: transparent;
        }
    </style>
    <g id="logo-bg" stroke="none" stroke-width="1" fill="none" fill-rule="evenodd">
        <circle id="Oval" fill="#1C4D65" cx="389" cy="390" r="376"></circle>
        <g id="logo" transform="translate(172.000000, 104.000000)" fill="#FFFFFF">
            <g id="Leaves">
                <g id="Group" transform="translate(157.314486, 184.108696) scale(-1, 1) translate(-157.314486, -184.108696) translate(119.814486, 135.108696)">
                    <path d="M15.829687,7.50210704 C24.4665938,-0.251206131 34.7507046,-1.53584225 46.6820196,3.64819867 C53.7534115,6.72065005 60.6204404,11.5607673 65.9402785,20.066592 C78.3627775,39.9287754 77.4560345,65.5841143 63.2200494,97.0326087 C61.7668139,78.7822195 55.7536655,60.2993323 45.1806043,41.5839472 C34.607543,22.8685621 24.8239039,11.5079487 15.829687,7.50210704 Z" id="Path-4"></path>
                    <path d="M9.08929638,15.5877579 C18.6385843,20.3124841 27.5232617,29.9824396 35.7433285,44.5976244 C43.9633954,59.2128092 50.0455949,73.9801273 53.989927,88.8995786 C47.9729248,82.505985 41.8907253,77.4062235 35.7433285,73.600294 C26.5222334,67.8913999 20.5700664,64.9547972 14.5971584,60.8636846 C6.22643583,55.1302013 -1.72301235,46.3152705 1.21688123,30.9446172 C2.28525194,25.3588519 4.90939033,20.2398988 9.08929638,15.5877579 Z" id="Path-8"></path>
                </g>
                <g id="Group" transform="translate(117.873572, 76.021739) scale(-1, 1) translate(-117.873572, -76.021739) translate(80.373572, 27.021739)">
                    <path d="M15.829687,7.50210704 C24.4665938,-0.251206131 34.7507046,-1.53584225 46.6820196,3.64819867 C53.7534115,6.72065005 60.6204404,11.5607673 65.9402785,20.066592 C78.3627775,39.9287754 77.4560345,65.5841143 63.2200494,97.0326087 C61.7668139,78.7822195 55.7536655,60.2993323 45.1806043,41.5839472 C34.607543,22.8685621 24.8239039,11.5079487 15.829687,7.50210704 Z" id="Path-4"></path>
                    <path d="M9.08929638,15.5877579 C18.6385843,20.3124841 27.5232617,29.9824396 35.7433285,44.5976244 C43.9633954,59.2128092 50.0455949,73.9801273 53.989927,88.8995786 C47.9729248,82.505985 41.8907253,77.4062235 35.7433285,73.600294 C26.5222334,67.8913999 20.5700664,64.9547972 14.5971584,60.8636846 C6.22643583,55.1302013 -1.72301235,46.3152705 1.21688123,30.9446172 C2.28525194,25.3588519 4.90939033,20.2398988 9.08929638,15.5877579 Z" id="Path-8"></path>
                </g>
                <g id="Group" transform="translate(222.638500, 49.000000) scale(-1, 1) translate(-222.638500, -49.000000) translate(185.138500, 0.000000)">
                    <path d="M15.829687,7.50210704 C24.4665938,-0.251206131 34.7507046,-1.53584225 46.6820196,3.64819867 C53.7534115,6.72065005 60.6204404,11.5607673 65.9402785,20.066592 C78.3627775,39.9287754 77.4560345,65.5841143 63.2200494,97.0326087 C61.7668139,78.7822195 55.7536655,60.2993323 45.1806043,41.5839472 C34.607543,22.8685621 24.8239039,11.5079487 15.829687,7.50210704 Z" id="Path-4"></path>
                    <path d="M9.08929638,15.5877579 C18.6385843,20.3124841 27.5232617,29.9824396 35.7433285,44.5976244 C43.9633954,59.2128092 50.0455949,73.9801273 53.989927,88.8995786 C47.9729248,82.505985 41.8907253,77.4062235 35.7433285,73.600294 C26.5222334,67.8913999 20.5700664,64.9547972 14.5971584,60.8636846 C6.22643583,55.1302013 -1.72301235,46.3152705 1.21688123,30.9446172 C2.28525194,25.3588519 4.90939033,20.2398988 9.08929638,15.5877579 Z" id="Path-8"></path>
                </g>
                <g id="Group" transform="translate(293.416771, 44.217391)">
                    <path d="M15.829687,7.50210704 C24.4665938,-0.251206131 34.7507046,-1.53584225 46.6820196,3.64819867 C53.7534115,6.72065005 60.6204404,11.5607673 65.9402785,20.066592 C78.3627775,39.9287754 77.4560345,65.5841143 63.2200494,97.0326087 C61.7668139,78.7822195 55.7536655,60.2993323 45.1806043,41.5839472 C34.607543,22.8685621 24.8239039,11.5079487 15.829687,7.50210704 Z" id="Path-4"></path>
                    <path d="M9.08929638,15.5877579 C18.6385843,20.3124841 27.5232617,29.9824396 35.7433285,44.5976244 C43.9633954,59.2128092 50.0455949,73.9801273 53.989927,88.8995786 C47.9729248,82.505985 41.8907253,77.4062235 35.7433285,73.600294 C26.5222334,67.8913999 20.5700664,64.9547972 14.5971584,60.8636846 C6.22643583,55.1302013 -1.72301235,46.3152705 1.21688123,30.9446172 C2.28525194,25.3588519 4.90939033,20.2398988 9.08929638,15.5877579 Z" id="Path-8"></path>
                </g>
                <g id="Group" transform="translate(231.790343, 119.141304)">
                    <path d="M15.829687,7.50210704 C24.4665938,-0.251206131 34.7507046,-1.53584225 46.6820196,3.64819867 C53.7534115,6.72065005 60.6204404,11.5607673 65.9402785,20.066592 C78.3627775,39.9287754 77.4560345,65.5841143 63.2200494,97.0326087 C61.7668139,78.7822195 55.7536655,60.2993323 45.1806043,41.5839472 C34.607543,22.8685621 24.8239039,11.5079487 15.829687,7.50210704 Z" id="Path-4"></path>
                    <path d="M9.08929638,15.5877579 C18.6385843,20.3124841 27.5232617,29.9824396 35.7433285,44.5976244 C43.9633954,59.2128092 50.0455949,73.9801273 53.989927,88.8995786 C47.9729248,82.505985 41.8907253,77.4062235 35.7433285,73.600294 C26.5222334,67.8913999 20.5700664,64.9547972 14.5971584,60.8636846 C6.22643583,55.1302013 -1.72301235,46.3152705 1.21688123,30.9446172 C2.28525194,25.3588519 4.90939033,20.2398988 9.08929638,15.5877579 Z" id="Path-8"></path>
                </g>
                <g id="Group" transform="translate(289.719186, 240.739130)">
                    <path d="M15.829687,7.50210704 C24.4665938,-0.251206131 34.7507046,-1.53584225 46.6820196,3.64819867 C53.7534115,6.72065005 60.6204404,11.5607673 65.9402785,20.066592 C78.3627775,39.9287754 77.4560345,65.5841143 63.2200494,97.0326087 C61.7668139,78.7822195 55.7536655,60.2993323 45.1806043,41.5839472 C34.607543,22.8685621 24.8239039,11.5079487 15.829687,7.50210704 Z" id="Path-4"></path>
                    <path d="M9.08929638,15.5877579 C18.6385843,20.3124841 27.5232617,29.9824396 35.7433285,44.5976244 C43.9633954,59.2128092 50.0455949,73.9801273 53.989927,88.8995786 C47.9729248,82.505985 41.8907253,77.4062235 35.7433285,73.600294 C26.5222334,67.8913999 20.5700664,64.9547972 14.5971584,60.8636846 C6.22643583,55.1302013 -1.72301235,46.3152705 1.21688123,30.9446172 C2.28525194,25.3588519 4.90939033,20.2398988 9.08929638,15.5877579 Z" id="Path-8"></path>
                </g>
                <g id="Group" transform="translate(358.740786, 160.902174)">
                    <path d="M15.829687,7.50210704 C24.4665938,-0.251206131 34.7507046,-1.53584225 46.6820196,3.64819867 C53.7534115,6.72065005 60.6204404,11.5607673 65.9402785,20.066592 C78.3627775,39.9287754 77.4560345,65.5841143 63.2200494,97.0326087 C61.7668139,78.7822195 55.7536655,60.2993323 45.1806043,41.5839472 C34.607543,22.8685621 24.8239039,11.5079487 15.829687,7.50210704 Z" id="Path-4"></path>
                    <path d="M9.08929638,15.5877579 C18.6385843,20.3124841 27.5232617,29.9824396 35.7433285,44.5976244 C43.9633954,59.2128092 50.0455949,73.9801273 53.989927,88.8995786 C47.9729248,82.505985 41.8907253,77.4062235 35.7433285,73.600294 C26.5222334,67.8913999 20.5700664,64.9547972 14.5971584,60.8636846 C6.22643583,55.1302013 -1.72301235,46.3152705 1.21688123,30.9446172 C2.28525194,25.3588519 4.90939033,20.2398988 9.08929638,15.5877579 Z" id="Path-8"></path>
                </g>
                <g id="Group" transform="translate(37.759214, 180.423913) scale(-1, 1) translate(-37.759214, -180.423913) translate(0.259214, 131.423913)">
                    <path d="M15.829687,7.50210704 C24.4665938,-0.251206131 34.7507046,-1.53584225 46.6820196,3.64819867 C53.7534115,6.72065005 60.6204404,11.5607673 65.9402785,20.066592 C78.3627775,39.9287754 77.4560345,65.5841143 63.2200494,97.0326087 C61.7668139,78.7822195 55.7536655,60.2993323 45.1806043,41.5839472 C34.607543,22.8685621 24.8239039,11.5079487 15.829687,7.50210704 Z" id="Path-4"></path>
                    <path d="M9.08929638,15.5877579 C18.6385843,20.3124841 27.5232617,29.9824396 35.7433285,44.5976244 C43.9633954,59.2128092 50.0455949,73.9801273 53.989927,88.8995786 C47.9729248,82.505985 41.8907253,77.4062235 35.7433285,73.600294 C26.5222334,67.8913999 20.5700664,64.9547972 14.5971584,60.8636846 C6.22643583,55.1302013 -1.72301235,46.3152705 1.21688123,30.9446172 C2.28525194,25.3588519 4.90939033,20.2398988 9.08929638,15.5877579 Z" id="Path-8"></path>
                </g>
            </g>
            <path d="M65,326.976648 C65,282.979458 111.227061,272.729906 136.534896,263.503389 C150.195102,258.523265 182.644424,251.022136 233.882862,241 L239.430109,241.570036 C199.702731,253.690341 174.226485,262.977436 163.001369,269.431322 C135.955432,284.981395 132.336042,302.177167 135.881493,312.018644 C144.510544,335.971198 180.912874,348.377531 222.209048,359.334945 C265.354305,371.382234 336.235798,389.187383 362.122952,425.862745 C388.010106,462.538106 388.010106,507.431153 347.330292,537.187474 C341.06514,541.770285 318.429246,555.01738 288.776016,561.371588 C215.922007,576.983026 148.945757,567.905227 127.252442,561.371588 C107.084406,556.073498 77.3869918,544.172845 84.1442271,537.187474 C120.456546,499.649189 182.724915,470.903345 149.441431,412.566576 C130.024439,378.533944 65,370.973837 65,326.976648 Z" id="Path"></path>
        </g>
    </g>
</svg>
