<?xml version="1.0" standalone="no"?>
<!DOCTYPE svg PUBLIC "-//W3C//DTD SVG 20010904//EN"
 "http://www.w3.org/TR/2001/REC-SVG-20010904/DTD/svg10.dtd">
<svg version="1.0" xmlns="http://www.w3.org/2000/svg"
 width="700.000000pt" height="700.000000pt" viewBox="0 0 700.000000 700.000000"
 preserveAspectRatio="xMidYMid meet">
<metadata>
Created by potrace 1.14, written by Peter Selinger 2001-2017
</metadata>
<g transform="translate(0.000000,700.000000) scale(0.100000,-0.100000)"
fill="#000000" stroke="none">
<path d="M3280 6994 c-19 -2 -84 -9 -145 -14 -578 -56 -1180 -283 -1660 -625
-237 -169 -531 -446 -709 -670 -416 -521 -673 -1147 -748 -1820 -17 -155 -17
-575 0 -730 52 -469 198 -931 418 -1327 290 -523 731 -983 1239 -1294 439
-269 920 -432 1460 -496 145 -17 576 -17 730 0 822 91 1556 447 2131 1034 203
206 348 390 487 618 274 449 433 916 499 1465 16 136 16 592 0 730 -86 725
-352 1347 -803 1885 -122 145 -351 370 -494 484 -510 407 -1117 661 -1775 742
-117 15 -553 27 -630 18z m421 -864 c52 -27 54 -35 14 -60 -145 -90 -347 -462
-387 -712 -7 -43 -16 -78 -19 -78 -4 0 -21 38 -37 84 -102 280 -76 528 69 677
104 107 252 143 360 89z m143 -150 c35 -53 57 -142 49 -194 -15 -99 -68 -155
-251 -266 -68 -41 -150 -99 -183 -128 -32 -30 -59 -51 -59 -49 0 3 16 51 36
108 41 119 118 276 179 369 50 75 155 179 201 199 1 1 13 -17 28 -39z m-1122
-101 c47 -24 56 -39 32 -52 -42 -24 -126 -113 -178 -190 -113 -168 -188 -345
-223 -527 l-19 -95 -27 67 c-90 226 -98 425 -23 585 43 90 99 151 176 192 99
53 183 59 262 20z m162 -177 c56 -105 44 -220 -32 -304 -19 -21 -95 -75 -169
-119 -73 -44 -161 -106 -195 -137 l-61 -57 8 35 c24 114 151 379 236 493 54
72 144 149 169 144 8 -1 28 -26 44 -55z m1753 16 c72 -27 139 -81 183 -150 86
-132 105 -290 61 -490 -13 -57 -72 -221 -77 -215 -3 2 -9 32 -14 65 -27 164
-108 364 -214 528 -55 83 -147 185 -194 215 l-24 14 43 25 c76 42 137 44 236
8z m-248 -184 c106 -100 213 -280 283 -479 48 -134 48 -135 -23 -71 -35 31
-117 89 -183 128 -138 82 -201 136 -227 193 -20 44 -25 130 -9 184 13 46 57
111 75 111 8 0 46 -30 84 -66z m-302 -524 c112 -52 192 -158 230 -303 32 -126
3 -344 -68 -502 l-22 -50 -9 60 c-37 271 -239 647 -408 756 l-24 16 27 18 c81
53 169 54 274 5z m-2106 -107 c27 -14 49 -29 49 -32 0 -3 -19 -17 -41 -31
-140 -86 -339 -449 -379 -691 -18 -109 -19 -110 -47 -44 -91 219 -98 448 -17
606 90 178 295 269 435 192z m1842 -72 c112 -107 237 -335 301 -549 l15 -53
-61 56 c-34 30 -116 88 -182 127 -177 106 -232 163 -250 261 -10 53 9 136 44
191 28 43 32 46 53 35 12 -7 48 -37 80 -68z m-761 53 c25 -8 53 -23 63 -33 15
-18 14 -20 -18 -40 -148 -91 -348 -462 -391 -722 -15 -95 -13 -96 -62 45 -124
360 -23 665 251 752 55 17 103 17 157 -2z m-949 -112 c35 -38 57 -106 57 -177
0 -126 -46 -179 -269 -311 -46 -27 -114 -75 -152 -107 -38 -31 -69 -55 -69
-53 0 22 82 231 122 310 86 171 154 263 242 328 46 33 48 33 69 10z m1148 -95
c16 -37 23 -71 23 -117 0 -118 -52 -181 -250 -298 -65 -38 -147 -96 -181 -127
l-62 -56 16 53 c36 122 121 309 190 416 41 65 114 145 167 184 36 26 41 27 57
12 9 -8 27 -39 40 -67z m2005 -53 c109 -51 193 -160 229 -295 19 -70 19 -219
1 -306 -18 -85 -75 -245 -86 -238 -4 2 -10 29 -14 58 -27 237 -227 610 -389
728 l-38 28 25 17 c80 51 174 54 272 8z m-284 -156 c90 -70 225 -296 296 -493
53 -146 53 -147 -21 -79 -35 32 -116 91 -181 129 -200 119 -245 172 -246 291
0 67 18 129 50 175 24 33 34 31 102 -23z m-1297 -556 c-6 -5 -116 -44 -245
-86 -343 -113 -468 -171 -575 -269 -221 -199 -155 -405 180 -567 119 -58 238
-98 531 -180 578 -161 822 -254 1040 -398 152 -100 236 -193 314 -350 117
-233 113 -491 -10 -681 -172 -266 -508 -423 -1060 -496 -170 -23 -589 -31
-772 -16 -283 24 -515 80 -693 166 -99 48 -116 60 -133 91 -10 18 -3 28 61 91
40 38 138 126 218 195 302 261 401 400 416 587 11 139 -57 312 -167 422 -70
71 -121 107 -305 219 -310 189 -395 293 -395 486 0 372 307 536 1435 767 129
27 175 32 160 19z m923 -24 c78 -29 164 -113 206 -202 40 -84 56 -153 56 -245
0 -108 -34 -261 -82 -369 l-21 -47 -12 75 c-41 252 -227 607 -375 715 -28 20
-48 41 -44 46 8 14 59 38 101 48 47 12 102 5 171 -21z m-292 -146 c124 -91
268 -335 345 -584 l17 -58 -56 51 c-32 28 -118 87 -192 132 -162 98 -214 147
-236 225 -14 46 -15 67 -6 115 12 64 55 147 76 147 7 0 31 -13 52 -28z"/>
</g>
</svg>
