<?xml version="1.0" encoding="UTF-8"?>
<svg width="850px" height="850px" viewBox="0 0 850 850" version="1.1" xmlns="http://www.w3.org/2000/svg" xmlns:xlink="http://www.w3.org/1999/xlink">
    <defs>
        <circle id="path-1" cx="426.49813" cy="426.508002" r="424.607986"></circle>
    </defs>
    <g id="logo" stroke="none" stroke-width="1" fill="none" fill-rule="evenodd">
        <g transform="translate(-3.000000, -3.000000)" id="Group">
            <g transform="translate(428.000000, 428.000000) rotate(-90.130000) translate(-428.000000, -428.000000) translate(1.000000, 1.000000)">
                <g id="Clipped" transform="translate(0.170572, 0.169107)">
                    <mask id="mask-2" fill="white">
                        <use xlink:href="#path-1"></use>
                    </mask>
                    <g id="Oval" transform="translate(426.498130, 426.508002) rotate(90.126000) translate(-426.498130, -426.508002) "></g>
                    <path d="M905.932539,417.250031 C908.356793,235.751144 797.124369,59.2987164 632.316781,-16.7888641 C469.462662,-96.4241596 262.720626,-71.4371328 123.514323,44.6987133 C-18.5896252,157.989007 -84.5517296,356.179194 -38.6669357,532.034728 C3.16224152,708.324367 153.55432,852.164731 331.536965,886.100812 C509.302557,924.11313 704.410605,849.339799 811.232749,702.257764 C872.217851,620.593032 905.922772,519.174397 905.927113,417.246775 L905.932539,417.250031 Z M364.507164,868.179913 C246.778157,865.455802 143.949769,791.166606 67.5474631,706.981901 C24.7621718,661.742836 -6.72990363,605.160634 -12.9191416,542.391365 C-28.4774293,412.084193 -1.95041847,274.939884 66.4730557,162.463535 C105.762724,105.353896 164.795444,64.4569573 223.184604,28.5532998 C339.122932,-40.941326 488.704322,-53.7018134 611.751104,4.86749975 C792.729066,88.454227 919.433174,289.151364 900.408566,489.957027 C889.421393,614.80534 805.097774,724.145288 695.728525,781.295081 C594.424927,836.686753 478.633109,859.513027 364.496312,868.179913 L364.507164,868.179913 Z M784.655721,210.008776 C712.69765,166.862093 617.861118,166.871861 545.91923,210.032652 C618.417856,251.038117 665.601706,332.319752 665.265276,415.613459 C737.90607,374.437608 784.904341,293.521706 784.655721,210.010947 L784.655721,210.008776 Z M665.267446,416.798346 C665.93245,500.453445 617.552904,581.399734 545.910548,622.921783 C618.023907,665.632191 712.725867,665.427077 784.658355,622.406132 C784.959939,539.021263 737.836614,457.86986 665.267446,416.80362 L665.267446,416.798346 Z M545.910548,622.921783 C473.995793,664.77158 379.13864,665.868778 307.131637,622.998511 C306.39518,706.492991 353.445109,788.185939 426.032726,829.436673 C499.054447,788.345473 546.453178,706.704617 545.899696,622.921783 L545.910548,622.921783 Z M306.649228,622.647418 C234.247191,581.481335 187.238068,500.099856 187.758992,416.817001 C115.080214,457.894094 67.8377593,539.451385 68.3586842,622.929586 C140.439485,665.553173 234.663931,665.443562 306.649228,622.647874 L306.649228,622.647418 Z M187.747814,416.136565 C187.227823,332.660534 234.465003,251.111925 307.13727,210.034833 C235.179104,166.870786 140.332804,166.867531 68.3692112,210.027237 C67.9409567,293.696444 114.945316,374.867382 187.747814,416.139821 L187.747814,416.136565 Z M307.152138,210.027161 C378.957282,166.171879 474.998454,168.072169 545.920196,209.419415 C546.465149,125.918423 499.221457,44.3296597 426.530741,3.24171511 C353.57305,44.5673317 306.425014,126.169118 307.152138,210.027161 L307.152138,210.027161 Z M545.872445,210.061531 C473.413974,251.068081 426.255085,332.316073 426.56981,415.56637 C499.077118,374.489278 546.154612,293.398648 545.872445,210.061531 Z M427.144293,416.487549 C498.813779,458.636878 592.603036,458.527267 664.175935,416.207682 C592.22211,373.739287 499.021064,373.839131 427.144293,416.487549 L427.144293,416.487549 Z M426.539434,416.833823 C426.023751,499.95823 473.219723,582.466208 545.875576,622.403777 C546.119081,538.927747 499.16612,458.030294 426.539434,416.833823 Z M426.478008,416.850428 C354.019537,457.856978 306.860648,539.10497 307.175373,622.355266 C379.682681,581.278174 426.760176,500.187545 426.478008,416.850428 Z M425.394159,416.207932 C353.793043,373.761242 259.870299,373.875194 188.362516,416.485693 C260.325023,458.654557 353.506535,458.556884 425.394159,416.207932 Z M426.03507,415.85748 C427.597627,333.015241 379.496949,250.952219 307.144834,210.037916 C306.72499,293.50852 353.501716,374.509073 426.03507,415.85748 Z" id="Shape" fill-opacity="0.99123" fill="#FFFFFF" fill-rule="nonzero" mask="url(#mask-2)"></path>
                </g>
            </g>
        </g>
    </g>
</svg>