<?xml version="1.0" encoding="UTF-8"?>
<svg width="778px" height="778px" viewBox="0 0 778 778" version="1.1" xmlns="http://www.w3.org/2000/svg" xmlns:xlink="http://www.w3.org/1999/xlink">
    <!-- Generator: Sketch 55.2 (78181) - https://sketchapp.com -->
    <title>grad</title>
    <desc>Created with Sketch.</desc>
    <g id="grad" stroke="none" stroke-width="1" fill="none" fill-rule="evenodd">
        <circle id="Oval" fill="#1C4D65" cx="389" cy="390" r="376"></circle>
        <g transform="translate(164.000000, 252.000000)" fill="#FFFFFF" fill-rule="nonzero" id="Shape">
            <path d="M440.626837,72.0605682 L241.160082,3.40090141 C228.716369,-1.10287861 231.333681,-1.14883555 218.981804,3.35494447 L18.3671045,71.417171 C6.01522673,75.8749941 6.10706225,83.1361904 18.5507756,87.6399705 L66.2134118,103.816813 C45.0912416,124.313608 43.7137087,145.59167 43.4382022,170.270547 C35.2648407,173.395619 29.4792027,181.346169 29.4792027,190.629471 C29.4792027,199.131504 34.3464854,206.530571 41.4637384,210.115213 C38.1117419,235.207701 28.4230942,263.884831 0,297.847009 C14.050835,308.738804 21.3058412,312.369402 32.2342684,316 C71.9990497,298.904019 67.131767,253.498563 64.055277,208.322892 C69.5194906,204.370595 73.0551582,197.936624 73.0551582,190.675428 C73.0551582,182.908705 68.9684775,176.061121 62.8154974,172.200738 C63.5042639,148.027388 68.7848064,126.38167 86.8764044,112.364804 C87.0141576,111.997148 87.4274175,111.67545 88.2080194,111.353751 L225.318455,55.8837257 C230.415326,53.8616204 236.200964,56.2973381 238.221346,61.3985583 L238.405017,61.8581277 C240.425398,66.9593479 237.991757,72.7499223 232.894885,74.7720276 L116.998456,121.096622 L220.680761,156.299637 C233.124474,160.803417 230.507162,160.849374 242.859039,156.345594 L440.810508,88.2833676 C453.116468,83.8255445 453.070551,76.5643482 440.626837,72.0605682 Z M220.405254,182.632963 L94.8660948,140.076838 L94.8660948,172.108824 C101.432335,178.129183 105.059838,186.769088 105.059838,196.328131 C105.059838,204.968036 102.029266,212.780715 96.9783118,218.663203 C98.6313512,223.67251 101.52417,228.589902 105.656769,230.152438 C178.711927,270.548587 279.685084,270.134975 360.867686,226.062271 C366.882913,221.052964 371.566524,214.848777 371.566524,208.828418 L371.566524,138.284517 L242.629451,182.724877 C230.323491,187.1827 232.80305,187.136743 220.405254,182.632963 Z"></path>
        </g>
    </g>
</svg>