<?xml version="1.0" encoding="UTF-8"?>
<svg width="158.49mm" height="141.56mm" version="1.1" viewBox="0 0 158.49 141.56" xmlns="http://www.w3.org/2000/svg">
 <g transform="translate(-44.92 -65.136)">
  <g fill="#5fd561">
   <path d="m132.76 110.98c0-4.5731 2.5454-8.273 5.6873-8.273 3.1494 0 5.6898 3.6998 5.6898 8.273v95.721h-11.377z" stroke-width=".31747"/>
   <path d="m135.28 131.02s-5.8642-10.557-10.789-13.139c0 0-64.083 12.202-79.57-49.751 0 0 49.917-20.178 85.9 44.279 0 0-29.883-29.727-61.804-35.361 0 0 49.141 22.22 66.655 48.187z" stroke-width=".26458"/>
   <path d="m151.02 122.24s0.46829-48.847 52.32-50.485c0 0 3.988 48.371-49.271 52.123 0 0 15.018-26.064 33.08-39.916 0 0-20.177 8.6863-36.129 38.278" stroke-width=".26458"/>
  </g>
 </g>
</svg>
