<?xml version="1.0" encoding="UTF-8"?>
<svg width="778px" height="778px" viewBox="0 0 778 778" version="1.1" xmlns="http://www.w3.org/2000/svg" xmlns:xlink="http://www.w3.org/1999/xlink">
    <!-- Generator: Sketch 55.2 (78181) - https://sketchapp.com -->
    <title>logo-bg</title>
    <desc>Created with Sketch.</desc>
    <g id="logo-bg" stroke="none" stroke-width="1" fill="none" fill-rule="evenodd">
        <circle id="Oval" fill="#1C4D65" cx="389" cy="390" r="376"></circle>
        <g id="logo" transform="translate(176.000000, 110.000000)" fill="#FFFFFF">
            <g id="Leaves">
                <g id="Group" transform="translate(154.772444, 180.717391) scale(-1, 1) translate(-154.772444, -180.717391) translate(117.772444, 132.717391)">
                    <path d="M15.5029274,7.36932638 C23.9615494,-0.246760004 34.0333736,-1.50865921 45.7183999,3.58362878 C52.6438228,6.60170049 59.3691011,11.356152 64.579126,19.7114311 C76.7451973,39.2220714 75.8571714,64.4233335 61.9150484,95.3152174 C60.4918108,77.3878439 54.6027871,59.2320875 44.2479771,40.8479482 C33.8931672,22.4638088 24.3114839,11.3042682 15.5029274,7.36932638 Z" id="Path-4"></path>
                    <path d="M8.90167329,15.3118684 C18.2538429,19.9529711 26.955121,29.4517769 35.0055075,43.8082859 C43.0558941,58.1647949 49.0125436,72.6707445 52.875456,87.3261347 C46.982658,81.0457021 41.0260084,76.0362018 35.0055075,72.297634 C25.9747561,66.6897822 20.1454549,63.8051547 14.2958409,59.7864513 C6.09790849,54.1544455 -1.68744558,45.4955312 1.19176213,30.3969249 C2.23807931,24.9100227 4.8080497,19.8816705 8.90167329,15.3118684 Z" id="Path-8"></path>
                </g>
                <g id="Group" transform="translate(116.145677, 74.543478) scale(-1, 1) translate(-116.145677, -74.543478) translate(79.145677, 26.543478)">
                    <path d="M15.5029274,7.36932638 C23.9615494,-0.246760004 34.0333736,-1.50865921 45.7183999,3.58362878 C52.6438228,6.60170049 59.3691011,11.356152 64.579126,19.7114311 C76.7451973,39.2220714 75.8571714,64.4233335 61.9150484,95.3152174 C60.4918108,77.3878439 54.6027871,59.2320875 44.2479771,40.8479482 C33.8931672,22.4638088 24.3114839,11.3042682 15.5029274,7.36932638 Z" id="Path-4"></path>
                    <path d="M8.90167329,15.3118684 C18.2538429,19.9529711 26.955121,29.4517769 35.0055075,43.8082859 C43.0558941,58.1647949 49.0125436,72.6707445 52.875456,87.3261347 C46.982658,81.0457021 41.0260084,76.0362018 35.0055075,72.297634 C25.9747561,66.6897822 20.1454549,63.8051547 14.2958409,59.7864513 C6.09790849,54.1544455 -1.68744558,45.4955312 1.19176213,30.3969249 C2.23807931,24.9100227 4.8080497,19.8816705 8.90167329,15.3118684 Z" id="Path-8"></path>
                </g>
                <g id="Group" transform="translate(218.748026, 48.000000) scale(-1, 1) translate(-218.748026, -48.000000) translate(181.748026, 0.000000)">
                    <path d="M15.5029274,7.36932638 C23.9615494,-0.246760004 34.0333736,-1.50865921 45.7183999,3.58362878 C52.6438228,6.60170049 59.3691011,11.356152 64.579126,19.7114311 C76.7451973,39.2220714 75.8571714,64.4233335 61.9150484,95.3152174 C60.4918108,77.3878439 54.6027871,59.2320875 44.2479771,40.8479482 C33.8931672,22.4638088 24.3114839,11.3042682 15.5029274,7.36932638 Z" id="Path-4"></path>
                    <path d="M8.90167329,15.3118684 C18.2538429,19.9529711 26.955121,29.4517769 35.0055075,43.8082859 C43.0558941,58.1647949 49.0125436,72.6707445 52.875456,87.3261347 C46.982658,81.0457021 41.0260084,76.0362018 35.0055075,72.297634 C25.9747561,66.6897822 20.1454549,63.8051547 14.2958409,59.7864513 C6.09790849,54.1544455 -1.68744558,45.4955312 1.19176213,30.3969249 C2.23807931,24.9100227 4.8080497,19.8816705 8.90167329,15.3118684 Z" id="Path-8"></path>
                </g>
                <g id="Group" transform="translate(288.339361, 43.434783)">
                    <path d="M15.5029274,7.36932638 C23.9615494,-0.246760004 34.0333736,-1.50865921 45.7183999,3.58362878 C52.6438228,6.60170049 59.3691011,11.356152 64.579126,19.7114311 C76.7451973,39.2220714 75.8571714,64.4233335 61.9150484,95.3152174 C60.4918108,77.3878439 54.6027871,59.2320875 44.2479771,40.8479482 C33.8931672,22.4638088 24.3114839,11.3042682 15.5029274,7.36932638 Z" id="Path-4"></path>
                    <path d="M8.90167329,15.3118684 C18.2538429,19.9529711 26.955121,29.4517769 35.0055075,43.8082859 C43.0558941,58.1647949 49.0125436,72.6707445 52.875456,87.3261347 C46.982658,81.0457021 41.0260084,76.0362018 35.0055075,72.297634 C25.9747561,66.6897822 20.1454549,63.8051547 14.2958409,59.7864513 C6.09790849,54.1544455 -1.68744558,45.4955312 1.19176213,30.3969249 C2.23807931,24.9100227 4.8080497,19.8816705 8.90167329,15.3118684 Z" id="Path-8"></path>
                </g>
                <g id="Group" transform="translate(227.985038, 117.032609)">
                    <path d="M15.5029274,7.36932638 C23.9615494,-0.246760004 34.0333736,-1.50865921 45.7183999,3.58362878 C52.6438228,6.60170049 59.3691011,11.356152 64.579126,19.7114311 C76.7451973,39.2220714 75.8571714,64.4233335 61.9150484,95.3152174 C60.4918108,77.3878439 54.6027871,59.2320875 44.2479771,40.8479482 C33.8931672,22.4638088 24.3114839,11.3042682 15.5029274,7.36932638 Z" id="Path-4"></path>
                    <path d="M8.90167329,15.3118684 C18.2538429,19.9529711 26.955121,29.4517769 35.0055075,43.8082859 C43.0558941,58.1647949 49.0125436,72.6707445 52.875456,87.3261347 C46.982658,81.0457021 41.0260084,76.0362018 35.0055075,72.297634 C25.9747561,66.6897822 20.1454549,63.8051547 14.2958409,59.7864513 C6.09790849,54.1544455 -1.68744558,45.4955312 1.19176213,30.3969249 C2.23807931,24.9100227 4.8080497,19.8816705 8.90167329,15.3118684 Z" id="Path-8"></path>
                </g>
                <g id="Group" transform="translate(284.718102, 236.478261)">
                    <path d="M15.5029274,7.36932638 C23.9615494,-0.246760004 34.0333736,-1.50865921 45.7183999,3.58362878 C52.6438228,6.60170049 59.3691011,11.356152 64.579126,19.7114311 C76.7451973,39.2220714 75.8571714,64.4233335 61.9150484,95.3152174 C60.4918108,77.3878439 54.6027871,59.2320875 44.2479771,40.8479482 C33.8931672,22.4638088 24.3114839,11.3042682 15.5029274,7.36932638 Z" id="Path-4"></path>
                    <path d="M8.90167329,15.3118684 C18.2538429,19.9529711 26.955121,29.4517769 35.0055075,43.8082859 C43.0558941,58.1647949 49.0125436,72.6707445 52.875456,87.3261347 C46.982658,81.0457021 41.0260084,76.0362018 35.0055075,72.297634 C25.9747561,66.6897822 20.1454549,63.8051547 14.2958409,59.7864513 C6.09790849,54.1544455 -1.68744558,45.4955312 1.19176213,30.3969249 C2.23807931,24.9100227 4.8080497,19.8816705 8.90167329,15.3118684 Z" id="Path-8"></path>
                </g>
                <g id="Group" transform="translate(352.314944, 158.054348)">
                    <path d="M15.5029274,7.36932638 C23.9615494,-0.246760004 34.0333736,-1.50865921 45.7183999,3.58362878 C52.6438228,6.60170049 59.3691011,11.356152 64.579126,19.7114311 C76.7451973,39.2220714 75.8571714,64.4233335 61.9150484,95.3152174 C60.4918108,77.3878439 54.6027871,59.2320875 44.2479771,40.8479482 C33.8931672,22.4638088 24.3114839,11.3042682 15.5029274,7.36932638 Z" id="Path-4"></path>
                    <path d="M8.90167329,15.3118684 C18.2538429,19.9529711 26.955121,29.4517769 35.0055075,43.8082859 C43.0558941,58.1647949 49.0125436,72.6707445 52.875456,87.3261347 C46.982658,81.0457021 41.0260084,76.0362018 35.0055075,72.297634 C25.9747561,66.6897822 20.1454549,63.8051547 14.2958409,59.7864513 C6.09790849,54.1544455 -1.68744558,45.4955312 1.19176213,30.3969249 C2.23807931,24.9100227 4.8080497,19.8816705 8.90167329,15.3118684 Z" id="Path-8"></path>
                </g>
                <g id="Group" transform="translate(37.685056, 177.097826) scale(-1, 1) translate(-37.685056, -177.097826) translate(0.685056, 129.097826)">
                    <path d="M15.5029274,7.36932638 C23.9615494,-0.246760004 34.0333736,-1.50865921 45.7183999,3.58362878 C52.6438228,6.60170049 59.3691011,11.356152 64.579126,19.7114311 C76.7451973,39.2220714 75.8571714,64.4233335 61.9150484,95.3152174 C60.4918108,77.3878439 54.6027871,59.2320875 44.2479771,40.8479482 C33.8931672,22.4638088 24.3114839,11.3042682 15.5029274,7.36932638 Z" id="Path-4"></path>
                    <path d="M8.90167329,15.3118684 C18.2538429,19.9529711 26.955121,29.4517769 35.0055075,43.8082859 C43.0558941,58.1647949 49.0125436,72.6707445 52.875456,87.3261347 C46.982658,81.0457021 41.0260084,76.0362018 35.0055075,72.297634 C25.9747561,66.6897822 20.1454549,63.8051547 14.2958409,59.7864513 C6.09790849,54.1544455 -1.68744558,45.4955312 1.19176213,30.3969249 C2.23807931,24.9100227 4.8080497,19.8816705 8.90167329,15.3118684 Z" id="Path-8"></path>
                </g>
            </g>
            <path d="M65,321.147357 C65,278.086278 110.199793,268.054802 134.945231,259.024593 C148.301878,254.15043 180.030104,246.808899 230.129909,237 L235.553884,237.557908 C196.709337,249.420334 171.799229,258.509831 160.82356,264.8264 C134.378645,280.045621 130.839686,296.875526 134.306349,306.507609 C142.743643,329.950534 178.337032,342.092903 218.715514,352.81718 C260.901987,364.608144 330.208336,382.03446 355.52022,417.929495 C380.832104,453.824529 380.832104,497.762405 341.056286,526.885613 C334.930359,531.370917 312.797485,544.336159 283.803215,550.555172 C212.568184,565.834451 147.080295,556.949797 125.869054,550.555172 C106.149197,545.369807 77.1117253,533.722359 83.7187998,526.885613 C119.224179,490.146014 180.108805,462.011784 147.564955,404.916223 C128.579452,371.60769 65,364.208436 65,321.147357 Z" id="Path"></path>
        </g>
    </g>
</svg>