<?xml version="1.0" encoding="UTF-8"?>
<svg width="352px" height="463px" viewBox="0 0 352 463" version="1.1" xmlns="http://www.w3.org/2000/svg" xmlns:xlink="http://www.w3.org/1999/xlink">
    <!-- Generator: Sketch 55.2 (78181) - https://sketchapp.com -->
    <title>Group 4</title>
    <desc>Created with Sketch.</desc>
    <g id="Page-1" stroke="none" stroke-width="1" fill="none" fill-rule="evenodd">
        <g id="Square" transform="translate(-194.000000, -164.000000)" fill="#FFFFFF">
            <g id="Group-4" transform="translate(105.000000, 108.000000)">
                <g id="Group" transform="translate(216.500000, 206.000000) scale(-1, 1) translate(-216.500000, -206.000000) translate(186.000000, 166.000000)">
                    <path d="M12.8432617,6.10791016 C19.8507315,-0.204521805 28.1946443,-1.25042024 37.875,2.97021484 C43.6123047,5.47167969 49.1838014,9.41230613 53.5,16.3374023 C63.5788731,32.5083835 62.843196,53.395916 51.2929688,79 C50.1139003,64.141276 45.2351912,49.0932617 36.6568414,33.855957 C28.0784916,18.6186523 20.1406317,9.36930339 12.8432617,6.10791016 Z" id="Path-4"></path>
                    <path d="M7.37451172,12.690918 C15.1222331,16.5375977 22.3307292,24.4104818 29,36.3095703 C35.6692708,48.2086589 40.6040039,60.2316081 43.8041992,72.378418 C38.9223633,67.1730143 33.9876302,63.0209961 29,59.9223633 C21.5185547,55.2744141 16.6893222,52.8835517 11.8432617,49.5527344 C5.05175781,44.8847656 -1.39794922,37.7080078 0.987304687,25.1938477 C1.85411681,20.6461449 3.98318582,16.4785017 7.37451172,12.690918 Z" id="Path-8"></path>
                </g>
                <g id="Group" transform="translate(184.500000, 118.000000) scale(-1, 1) translate(-184.500000, -118.000000) translate(154.000000, 78.000000)">
                    <path d="M12.8432617,6.10791016 C19.8507315,-0.204521805 28.1946443,-1.25042024 37.875,2.97021484 C43.6123047,5.47167969 49.1838014,9.41230613 53.5,16.3374023 C63.5788731,32.5083835 62.843196,53.395916 51.2929688,79 C50.1139003,64.141276 45.2351912,49.0932617 36.6568414,33.855957 C28.0784916,18.6186523 20.1406317,9.36930339 12.8432617,6.10791016 Z" id="Path-4"></path>
                    <path d="M7.37451172,12.690918 C15.1222331,16.5375977 22.3307292,24.4104818 29,36.3095703 C35.6692708,48.2086589 40.6040039,60.2316081 43.8041992,72.378418 C38.9223633,67.1730143 33.9876302,63.0209961 29,59.9223633 C21.5185547,55.2744141 16.6893222,52.8835517 11.8432617,49.5527344 C5.05175781,44.8847656 -1.39794922,37.7080078 0.987304687,25.1938477 C1.85411681,20.6461449 3.98318582,16.4785017 7.37451172,12.690918 Z" id="Path-8"></path>
                </g>
                <g id="Group" transform="translate(269.500000, 96.000000) scale(-1, 1) translate(-269.500000, -96.000000) translate(239.000000, 56.000000)">
                    <path d="M12.8432617,6.10791016 C19.8507315,-0.204521805 28.1946443,-1.25042024 37.875,2.97021484 C43.6123047,5.47167969 49.1838014,9.41230613 53.5,16.3374023 C63.5788731,32.5083835 62.843196,53.395916 51.2929688,79 C50.1139003,64.141276 45.2351912,49.0932617 36.6568414,33.855957 C28.0784916,18.6186523 20.1406317,9.36930339 12.8432617,6.10791016 Z" id="Path-4"></path>
                    <path d="M7.37451172,12.690918 C15.1222331,16.5375977 22.3307292,24.4104818 29,36.3095703 C35.6692708,48.2086589 40.6040039,60.2316081 43.8041992,72.378418 C38.9223633,67.1730143 33.9876302,63.0209961 29,59.9223633 C21.5185547,55.2744141 16.6893222,52.8835517 11.8432617,49.5527344 C5.05175781,44.8847656 -1.39794922,37.7080078 0.987304687,25.1938477 C1.85411681,20.6461449 3.98318582,16.4785017 7.37451172,12.690918 Z" id="Path-8"></path>
                </g>
                <g id="Group" transform="translate(327.000000, 92.000000)">
                    <path d="M12.8432617,6.10791016 C19.8507315,-0.204521805 28.1946443,-1.25042024 37.875,2.97021484 C43.6123047,5.47167969 49.1838014,9.41230613 53.5,16.3374023 C63.5788731,32.5083835 62.843196,53.395916 51.2929688,79 C50.1139003,64.141276 45.2351912,49.0932617 36.6568414,33.855957 C28.0784916,18.6186523 20.1406317,9.36930339 12.8432617,6.10791016 Z" id="Path-4"></path>
                    <path d="M7.37451172,12.690918 C15.1222331,16.5375977 22.3307292,24.4104818 29,36.3095703 C35.6692708,48.2086589 40.6040039,60.2316081 43.8041992,72.378418 C38.9223633,67.1730143 33.9876302,63.0209961 29,59.9223633 C21.5185547,55.2744141 16.6893222,52.8835517 11.8432617,49.5527344 C5.05175781,44.8847656 -1.39794922,37.7080078 0.987304687,25.1938477 C1.85411681,20.6461449 3.98318582,16.4785017 7.37451172,12.690918 Z" id="Path-8"></path>
                </g>
                <g id="Group" transform="translate(277.000000, 153.000000)">
                    <path d="M12.8432617,6.10791016 C19.8507315,-0.204521805 28.1946443,-1.25042024 37.875,2.97021484 C43.6123047,5.47167969 49.1838014,9.41230613 53.5,16.3374023 C63.5788731,32.5083835 62.843196,53.395916 51.2929688,79 C50.1139003,64.141276 45.2351912,49.0932617 36.6568414,33.855957 C28.0784916,18.6186523 20.1406317,9.36930339 12.8432617,6.10791016 Z" id="Path-4"></path>
                    <path d="M7.37451172,12.690918 C15.1222331,16.5375977 22.3307292,24.4104818 29,36.3095703 C35.6692708,48.2086589 40.6040039,60.2316081 43.8041992,72.378418 C38.9223633,67.1730143 33.9876302,63.0209961 29,59.9223633 C21.5185547,55.2744141 16.6893222,52.8835517 11.8432617,49.5527344 C5.05175781,44.8847656 -1.39794922,37.7080078 0.987304687,25.1938477 C1.85411681,20.6461449 3.98318582,16.4785017 7.37451172,12.690918 Z" id="Path-8"></path>
                </g>
                <g id="Group" transform="translate(324.000000, 252.000000)">
                    <path d="M12.8432617,6.10791016 C19.8507315,-0.204521805 28.1946443,-1.25042024 37.875,2.97021484 C43.6123047,5.47167969 49.1838014,9.41230613 53.5,16.3374023 C63.5788731,32.5083835 62.843196,53.395916 51.2929688,79 C50.1139003,64.141276 45.2351912,49.0932617 36.6568414,33.855957 C28.0784916,18.6186523 20.1406317,9.36930339 12.8432617,6.10791016 Z" id="Path-4"></path>
                    <path d="M7.37451172,12.690918 C15.1222331,16.5375977 22.3307292,24.4104818 29,36.3095703 C35.6692708,48.2086589 40.6040039,60.2316081 43.8041992,72.378418 C38.9223633,67.1730143 33.9876302,63.0209961 29,59.9223633 C21.5185547,55.2744141 16.6893222,52.8835517 11.8432617,49.5527344 C5.05175781,44.8847656 -1.39794922,37.7080078 0.987304687,25.1938477 C1.85411681,20.6461449 3.98318582,16.4785017 7.37451172,12.690918 Z" id="Path-8"></path>
                </g>
                <g id="Group" transform="translate(380.000000, 187.000000)">
                    <path d="M12.8432617,6.10791016 C19.8507315,-0.204521805 28.1946443,-1.25042024 37.875,2.97021484 C43.6123047,5.47167969 49.1838014,9.41230613 53.5,16.3374023 C63.5788731,32.5083835 62.843196,53.395916 51.2929688,79 C50.1139003,64.141276 45.2351912,49.0932617 36.6568414,33.855957 C28.0784916,18.6186523 20.1406317,9.36930339 12.8432617,6.10791016 Z" id="Path-4"></path>
                    <path d="M7.37451172,12.690918 C15.1222331,16.5375977 22.3307292,24.4104818 29,36.3095703 C35.6692708,48.2086589 40.6040039,60.2316081 43.8041992,72.378418 C38.9223633,67.1730143 33.9876302,63.0209961 29,59.9223633 C21.5185547,55.2744141 16.6893222,52.8835517 11.8432617,49.5527344 C5.05175781,44.8847656 -1.39794922,37.7080078 0.987304687,25.1938477 C1.85411681,20.6461449 3.98318582,16.4785017 7.37451172,12.690918 Z" id="Path-8"></path>
                </g>
                <g id="Group" transform="translate(119.500000, 203.000000) scale(-1, 1) translate(-119.500000, -203.000000) translate(89.000000, 163.000000)">
                    <path d="M12.8432617,6.10791016 C19.8507315,-0.204521805 28.1946443,-1.25042024 37.875,2.97021484 C43.6123047,5.47167969 49.1838014,9.41230613 53.5,16.3374023 C63.5788731,32.5083835 62.843196,53.395916 51.2929688,79 C50.1139003,64.141276 45.2351912,49.0932617 36.6568414,33.855957 C28.0784916,18.6186523 20.1406317,9.36930339 12.8432617,6.10791016 Z" id="Path-4"></path>
                    <path d="M7.37451172,12.690918 C15.1222331,16.5375977 22.3307292,24.4104818 29,36.3095703 C35.6692708,48.2086589 40.6040039,60.2316081 43.8041992,72.378418 C38.9223633,67.1730143 33.9876302,63.0209961 29,59.9223633 C21.5185547,55.2744141 16.6893222,52.8835517 11.8432617,49.5527344 C5.05175781,44.8847656 -1.39794922,37.7080078 0.987304687,25.1938477 C1.85411681,20.6461449 3.98318582,16.4785017 7.37451172,12.690918 Z" id="Path-8"></path>
                </g>
                <path d="M141.969951,321.575556 C141.969951,285.869631 179.469951,277.551605 200,270.063823 C211.081339,266.022204 237.404656,259.934661 278.969951,251.801195 L283.469951,252.263808 C251.24258,262.100043 230.575913,269.636986 221.469951,274.874638 C199.529932,287.494303 196.593835,301.449534 199.469951,309.436386 C206.469951,328.875085 236,338.943447 269.5,347.835938 C304.5,357.612917 362,372.062688 383,401.826583 C404,431.590478 404,468.023438 371,492.172185 C365.917626,495.891365 347.555091,506.642047 323.5,511.798806 C264.399869,524.468271 210.067854,517.101182 192.469951,511.798806 C176.109375,507.49914 152.018442,497.841164 157.5,492.172185 C186.957031,461.707983 237.469951,438.379289 210.469951,391.036076 C194.718632,363.416888 141.969951,357.281482 141.969951,321.575556 Z" id="Path-9"></path>
            </g>
        </g>
    </g>
</svg>