<?xml version="1.0" encoding="UTF-8"?>
<svg width="3330px" height="411px" viewBox="0 0 3330 411" version="1.1" xmlns="http://www.w3.org/2000/svg" xmlns:xlink="http://www.w3.org/1999/xlink">
    <!-- Generator: Sketch 55.2 (78181) - https://sketchapp.com -->
    <title>Group 2</title>
    <desc>Created with Sketch.</desc>
    <g id="Page-1" stroke="none" stroke-width="1" fill="none" fill-rule="evenodd">
        <g id="logo-bg" transform="translate(-400.000000, -184.000000)" fill="#FFFFFF">
            <g id="Group-2" transform="translate(399.000000, 184.000000)">
                <g id="Logo">
                    <g id="Leaves">
                        <g id="Group" transform="translate(114.022359, 133.144928) scale(-1, 1) translate(-114.022359, -133.144928) translate(87.022359, 97.644928)">
                            <path d="M11.4002792,5.42187677 C17.6204368,-0.181550153 25.0268836,-1.10997449 33.6196196,2.63660376 C38.7123193,4.85710697 43.6578401,8.35512682 47.4890996,14.5024043 C56.4355783,28.8570796 55.782557,47.3985487 45.5300356,70.1268116 C44.4834394,56.9370023 40.1528692,43.5791635 32.5383251,30.0532952 C24.923781,16.5274269 17.8777657,8.31695409 11.4002792,5.42187677 Z" id="Path-4"></path>
                            <path d="M6.54596116,11.2654888 C13.4232006,14.6801139 19.8217986,21.6687248 25.7417549,32.2313215 C31.6617113,42.7939182 36.042011,53.4664637 38.8826539,64.248958 C34.5493082,59.6282192 30.1690086,55.9425509 25.7417549,53.1919529 C19.1008745,49.066056 14.8142221,46.9437325 10.5126324,43.9870287 C4.48417626,39.8433608 -1.24088504,33.4726881 0.87637777,22.3641039 C1.64580071,18.3271938 3.53566184,14.6276555 6.54596116,11.2654888 Z" id="Path-8"></path>
                        </g>
                        <g id="Group" transform="translate(85.617664, 55.028986) scale(-1, 1) translate(-85.617664, -55.028986) translate(58.617664, 19.528986)">
                            <path d="M11.4002792,5.42187677 C17.6204368,-0.181550153 25.0268836,-1.10997449 33.6196196,2.63660376 C38.7123193,4.85710697 43.6578401,8.35512682 47.4890996,14.5024043 C56.4355783,28.8570796 55.782557,47.3985487 45.5300356,70.1268116 C44.4834394,56.9370023 40.1528692,43.5791635 32.5383251,30.0532952 C24.923781,16.5274269 17.8777657,8.31695409 11.4002792,5.42187677 Z" id="Path-4"></path>
                            <path d="M6.54596116,11.2654888 C13.4232006,14.6801139 19.8217986,21.6687248 25.7417549,32.2313215 C31.6617113,42.7939182 36.042011,53.4664637 38.8826539,64.248958 C34.5493082,59.6282192 30.1690086,55.9425509 25.7417549,53.1919529 C19.1008745,49.066056 14.8142221,46.9437325 10.5126324,43.9870287 C4.48417626,39.8433608 -1.24088504,33.4726881 0.87637777,22.3641039 C1.64580071,18.3271938 3.53566184,14.6276555 6.54596116,11.2654888 Z" id="Path-8"></path>
                        </g>
                        <g id="Group" transform="translate(161.067635, 35.500000) scale(-1, 1) translate(-161.067635, -35.500000) translate(134.067635, 0.000000)">
                            <path d="M11.4002792,5.42187677 C17.6204368,-0.181550153 25.0268836,-1.10997449 33.6196196,2.63660376 C38.7123193,4.85710697 43.6578401,8.35512682 47.4890996,14.5024043 C56.4355783,28.8570796 55.782557,47.3985487 45.5300356,70.1268116 C44.4834394,56.9370023 40.1528692,43.5791635 32.5383251,30.0532952 C24.923781,16.5274269 17.8777657,8.31695409 11.4002792,5.42187677 Z" id="Path-4"></path>
                            <path d="M6.54596116,11.2654888 C13.4232006,14.6801139 19.8217986,21.6687248 25.7417549,32.2313215 C31.6617113,42.7939182 36.042011,53.4664637 38.8826539,64.248958 C34.5493082,59.6282192 30.1690086,55.9425509 25.7417549,53.1919529 C19.1008745,49.066056 14.8142221,46.9437325 10.5126324,43.9870287 C4.48417626,39.8433608 -1.24088504,33.4726881 0.87637777,22.3641039 C1.64580071,18.3271938 3.53566184,14.6276555 6.54596116,11.2654888 Z" id="Path-8"></path>
                        </g>
                        <g id="Group" transform="translate(212.034097, 31.956522)">
                            <path d="M11.4002792,5.42187677 C17.6204368,-0.181550153 25.0268836,-1.10997449 33.6196196,2.63660376 C38.7123193,4.85710697 43.6578401,8.35512682 47.4890996,14.5024043 C56.4355783,28.8570796 55.782557,47.3985487 45.5300356,70.1268116 C44.4834394,56.9370023 40.1528692,43.5791635 32.5383251,30.0532952 C24.923781,16.5274269 17.8777657,8.31695409 11.4002792,5.42187677 Z" id="Path-4"></path>
                            <path d="M6.54596116,11.2654888 C13.4232006,14.6801139 19.8217986,21.6687248 25.7417549,32.2313215 C31.6617113,42.7939182 36.042011,53.4664637 38.8826539,64.248958 C34.5493082,59.6282192 30.1690086,55.9425509 25.7417549,53.1919529 C19.1008745,49.066056 14.8142221,46.9437325 10.5126324,43.9870287 C4.48417626,39.8433608 -1.24088504,33.4726881 0.87637777,22.3641039 C1.64580071,18.3271938 3.53566184,14.6276555 6.54596116,11.2654888 Z" id="Path-8"></path>
                        </g>
                        <g id="Group" transform="translate(167.651761, 86.105072)">
                            <path d="M11.4002792,5.42187677 C17.6204368,-0.181550153 25.0268836,-1.10997449 33.6196196,2.63660376 C38.7123193,4.85710697 43.6578401,8.35512682 47.4890996,14.5024043 C56.4355783,28.8570796 55.782557,47.3985487 45.5300356,70.1268116 C44.4834394,56.9370023 40.1528692,43.5791635 32.5383251,30.0532952 C24.923781,16.5274269 17.8777657,8.31695409 11.4002792,5.42187677 Z" id="Path-4"></path>
                            <path d="M6.54596116,11.2654888 C13.4232006,14.6801139 19.8217986,21.6687248 25.7417549,32.2313215 C31.6617113,42.7939182 36.042011,53.4664637 38.8826539,64.248958 C34.5493082,59.6282192 30.1690086,55.9425509 25.7417549,53.1919529 C19.1008745,49.066056 14.8142221,46.9437325 10.5126324,43.9870287 C4.48417626,39.8433608 -1.24088504,33.4726881 0.87637777,22.3641039 C1.64580071,18.3271938 3.53566184,14.6276555 6.54596116,11.2654888 Z" id="Path-8"></path>
                        </g>
                        <g id="Group" transform="translate(209.371157, 173.985507)">
                            <path d="M11.4002792,5.42187677 C17.6204368,-0.181550153 25.0268836,-1.10997449 33.6196196,2.63660376 C38.7123193,4.85710697 43.6578401,8.35512682 47.4890996,14.5024043 C56.4355783,28.8570796 55.782557,47.3985487 45.5300356,70.1268116 C44.4834394,56.9370023 40.1528692,43.5791635 32.5383251,30.0532952 C24.923781,16.5274269 17.8777657,8.31695409 11.4002792,5.42187677 Z" id="Path-4"></path>
                            <path d="M6.54596116,11.2654888 C13.4232006,14.6801139 19.8217986,21.6687248 25.7417549,32.2313215 C31.6617113,42.7939182 36.042011,53.4664637 38.8826539,64.248958 C34.5493082,59.6282192 30.1690086,55.9425509 25.7417549,53.1919529 C19.1008745,49.066056 14.8142221,46.9437325 10.5126324,43.9870287 C4.48417626,39.8433608 -1.24088504,33.4726881 0.87637777,22.3641039 C1.64580071,18.3271938 3.53566184,14.6276555 6.54596116,11.2654888 Z" id="Path-8"></path>
                        </g>
                        <g id="Group" transform="translate(259.079373, 116.286232)">
                            <path d="M11.4002792,5.42187677 C17.6204368,-0.181550153 25.0268836,-1.10997449 33.6196196,2.63660376 C38.7123193,4.85710697 43.6578401,8.35512682 47.4890996,14.5024043 C56.4355783,28.8570796 55.782557,47.3985487 45.5300356,70.1268116 C44.4834394,56.9370023 40.1528692,43.5791635 32.5383251,30.0532952 C24.923781,16.5274269 17.8777657,8.31695409 11.4002792,5.42187677 Z" id="Path-4"></path>
                            <path d="M6.54596116,11.2654888 C13.4232006,14.6801139 19.8217986,21.6687248 25.7417549,32.2313215 C31.6617113,42.7939182 36.042011,53.4664637 38.8826539,64.248958 C34.5493082,59.6282192 30.1690086,55.9425509 25.7417549,53.1919529 C19.1008745,49.066056 14.8142221,46.9437325 10.5126324,43.9870287 C4.48417626,39.8433608 -1.24088504,33.4726881 0.87637777,22.3641039 C1.64580071,18.3271938 3.53566184,14.6276555 6.54596116,11.2654888 Z" id="Path-8"></path>
                        </g>
                        <g id="Group" transform="translate(27.920627, 130.481884) scale(-1, 1) translate(-27.920627, -130.481884) translate(0.920627, 94.981884)">
                            <path d="M11.4002792,5.42187677 C17.6204368,-0.181550153 25.0268836,-1.10997449 33.6196196,2.63660376 C38.7123193,4.85710697 43.6578401,8.35512682 47.4890996,14.5024043 C56.4355783,28.8570796 55.782557,47.3985487 45.5300356,70.1268116 C44.4834394,56.9370023 40.1528692,43.5791635 32.5383251,30.0532952 C24.923781,16.5274269 17.8777657,8.31695409 11.4002792,5.42187677 Z" id="Path-4"></path>
                            <path d="M6.54596116,11.2654888 C13.4232006,14.6801139 19.8217986,21.6687248 25.7417549,32.2313215 C31.6617113,42.7939182 36.042011,53.4664637 38.8826539,64.248958 C34.5493082,59.6282192 30.1690086,55.9425509 25.7417549,53.1919529 C19.1008745,49.066056 14.8142221,46.9437325 10.5126324,43.9870287 C4.48417626,39.8433608 -1.24088504,33.4726881 0.87637777,22.3641039 C1.64580071,18.3271938 3.53566184,14.6276555 6.54596116,11.2654888 Z" id="Path-8"></path>
                        </g>
                    </g>
                    <path d="M48,235.934546 C48,204.240522 81.3128342,196.857106 99.550544,190.210648 C109.394566,186.623143 132.77868,181.219593 169.702888,174 L173.700428,174.410634 C145.071492,183.141674 126.712419,189.83177 118.623209,194.480922 C99.1329623,205.682646 96.5247034,218.069874 99.0796791,225.159327 C105.298075,242.413902 131.530865,251.350988 161.29033,259.244322 C192.382309,267.922764 243.461988,280.748966 262.117175,307.168603 C280.772362,333.58824 280.772362,365.927609 251.457068,387.363013 C246.94218,390.664309 230.629965,400.207049 209.260811,404.784396 C156.759668,416.030326 108.494244,409.491 92.8612834,404.784396 C78.3274925,400.967839 56.9264988,392.395028 61.7959985,387.363013 C87.9639238,360.321756 132.836684,339.614263 108.851444,297.590512 C94.8588815,273.074604 48,267.628569 48,235.934546 Z" id="Path"></path>
                </g>
                <path d="M699.271505,304 C680.08503,304 662.79936,299.778673 647.413978,291.335894 C632.028597,282.893114 619.946728,271.227728 611.168011,256.339385 C602.389293,241.451043 598,224.838081 598,206.5 C598,188.161919 602.389293,171.548957 611.168011,156.660615 C619.946728,141.772272 632.028597,130.106886 647.413978,121.664106 C662.79936,113.221327 680.08503,109 699.271505,109 C718.276977,109 735.472145,113.221327 750.857527,121.664106 C766.242908,130.106886 778.279526,141.726881 786.967742,156.524441 C795.655957,171.322001 800,187.980354 800,206.5 C800,225.019646 795.655957,241.677999 786.967742,256.475559 C778.279526,271.273119 766.242908,282.893114 750.857527,291.335894 C735.472145,299.778673 718.276977,304 699.271505,304 Z M699.272059,280 C713.237815,280 725.797738,276.833985 736.952206,270.501859 C748.106673,264.169733 756.903154,255.440576 763.341912,244.314126 C769.780669,233.187677 773,220.749759 773,207 C773,193.250241 769.780669,180.812323 763.341912,169.685874 C756.903154,158.559424 748.106673,149.830267 736.952206,143.498141 C725.797738,137.166015 713.237815,134 699.272059,134 C685.306303,134 672.655694,137.166015 661.319853,143.498141 C649.984012,149.830267 641.096846,158.559424 634.658088,169.685874 C628.219331,180.812323 625,193.250241 625,207 C625,220.749759 628.219331,233.187677 634.658088,244.314126 C641.096846,255.440576 649.984012,264.169733 661.319853,270.501859 C672.655694,276.833985 685.306303,280 699.272059,280 Z M914.264117,156 C928.196184,156 940.680576,159.078159 951.717668,165.234568 C962.754761,171.390977 971.394322,179.991714 977.636612,191.037037 C983.878902,202.08236 987,214.847664 987,229.333333 C987,243.819002 983.878902,256.629574 977.636612,267.765432 C971.394322,278.90129 962.754761,287.547294 951.717668,293.703704 C940.680576,299.860113 928.196184,302.938272 914.264117,302.938272 C903.950768,302.938272 894.497007,300.946522 885.90255,296.962963 C877.308093,292.979404 870.025531,287.185223 864.054645,279.580247 L864.054645,354 L838,354 L838,157.358025 L862.969035,157.358025 L862.969035,180.17284 C868.758985,172.205721 876.08678,166.185206 884.952641,162.111111 C893.818502,158.037017 903.588896,156 914.264117,156 Z M911.364146,280 C920.602287,280 928.889319,277.878931 936.22549,273.636729 C943.561661,269.394527 949.358055,263.437483 953.614846,255.765416 C957.871637,248.093349 960,239.293168 960,229.364611 C960,219.436054 957.871637,210.635874 953.614846,202.963807 C949.358055,195.29174 943.561661,189.379824 936.22549,185.227882 C928.889319,181.07594 920.602287,179 911.364146,179 C902.307144,179 894.110681,181.121069 886.77451,185.363271 C879.438339,189.605473 873.641945,195.517388 869.385154,203.099196 C865.128363,210.681003 863,219.436054 863,229.364611 C863,239.293168 865.083079,248.093349 869.2493,255.765416 C873.41552,263.437483 879.211914,269.394527 886.638655,273.636729 C894.065397,277.878931 902.307144,280 911.364146,280 Z M1088.14801,280.175601 C1105.33342,280.175601 1119.17199,274.378986 1129.66414,262.785582 L1143.77419,279.632163 C1137.44273,287.240334 1129.43806,293.036949 1119.75996,297.022181 C1110.08186,301.007414 1099.2733,303 1087.33397,303 C1072.13844,303 1058.66167,299.875262 1046.90323,293.625693 C1035.14479,287.376124 1026.05474,278.635916 1019.63283,267.404806 C1013.21091,256.173696 1010,243.493601 1010,229.36414 C1010,215.415827 1013.12046,202.826304 1019.36148,191.595194 C1025.6025,180.364084 1034.19507,171.623876 1045.13947,165.374307 C1056.08386,159.124738 1068.43004,156 1082.17837,156 C1095.2031,156 1107.05181,158.943593 1117.72486,164.830869 C1128.3979,170.718144 1136.90003,179.005492 1143.2315,189.693161 C1149.56297,200.38083 1152.8191,212.698636 1153,226.64695 L1038.76281,248.927911 C1042.38079,258.890993 1048.48604,266.589622 1057.07875,272.02403 C1065.67145,277.458438 1076.02777,280.175601 1088.14801,280.175601 Z M1081.94985,178 C1072.90359,178 1064.80731,180.094481 1057.66077,184.283505 C1050.51422,188.47253 1044.95086,194.346182 1040.9705,201.904639 C1036.99015,209.463096 1035,218.250809 1035,228.268041 L1035,231 L1127,213.515464 C1124.64797,202.951837 1119.40122,194.391785 1111.25959,187.835052 C1103.11795,181.278318 1093.34814,178 1081.94985,178 Z M1266.07952,156 C1284.41891,156 1298.99034,161.284994 1309.79423,171.85514 C1320.59813,182.425286 1326,197.918901 1326,218.336449 L1326,301 L1299.85288,301 L1299.85288,221.317757 C1299.85288,207.404915 1296.49374,196.925269 1289.77535,189.878505 C1283.05696,182.83174 1273.43346,179.308411 1260.90457,179.308411 C1246.74148,179.308411 1235.57459,183.418962 1227.40358,191.640187 C1219.23256,199.861412 1215.14712,211.651014 1215.14712,227.009346 L1215.14712,301 L1189,301 L1189,157.35514 L1214.05765,157.35514 L1214.05765,179.037383 C1219.32342,171.629246 1226.45025,165.937715 1235.43837,161.962617 C1244.42649,157.987519 1254.6401,156 1266.07952,156 Z M1525.41062,112 C1550.12343,112 1569.5663,117.880894 1583.73982,129.642857 C1597.91335,141.404821 1605,157.599897 1605,178.228571 C1605,198.857246 1597.91335,215.052322 1583.73982,226.814286 C1569.5663,238.576249 1550.12343,244.457143 1525.41062,244.457143 L1478.25664,244.457143 L1478.25664,302 L1451,302 L1451,112 L1525.41062,112 Z M1524.10959,220 C1541.28776,220 1554.39722,216.345578 1563.43836,209.036624 C1572.4795,201.72767 1577,191.215568 1577,177.5 C1577,163.784432 1572.4795,153.27233 1563.43836,145.963376 C1554.39722,138.654422 1541.28776,135 1524.10959,135 L1478,135 L1478,220 L1524.10959,220 Z M1779,157.358595 L1779,301.369686 L1754.03097,301.369686 L1754.03097,278.545287 C1748.24102,286.515751 1740.91322,292.584083 1732.04736,296.750462 C1723.1815,300.916842 1713.4111,303 1702.73588,303 C1688.80382,303 1676.31942,299.920548 1665.28233,293.761553 C1654.24524,287.602557 1645.60568,278.952921 1639.36339,267.812384 C1633.1211,256.671848 1630,243.855895 1630,229.36414 C1630,214.872386 1633.1211,202.101719 1639.36339,191.051756 C1645.60568,180.001793 1654.24524,171.397443 1665.28233,165.238447 C1676.31942,159.079452 1688.80382,156 1702.73588,156 C1713.04923,156 1722.54823,157.9473 1731.23315,161.841959 C1739.91808,165.736618 1747.15541,171.487947 1752.94536,179.096118 L1752.94536,157.358595 L1779,157.358595 Z M1705.63585,280 C1714.69286,280 1722.9346,277.878931 1730.36134,273.636729 C1737.78809,269.394527 1743.58448,263.437483 1747.7507,255.765416 C1751.91692,248.093349 1754,239.293168 1754,229.364611 C1754,219.436054 1751.91692,210.635874 1747.7507,202.963807 C1743.58448,195.29174 1737.78809,189.379824 1730.36134,185.227882 C1722.9346,181.07594 1714.69286,179 1705.63585,179 C1696.39771,179 1688.11068,181.07594 1680.77451,185.227882 C1673.43834,189.379824 1667.64194,195.29174 1663.38515,202.963807 C1659.12836,210.635874 1657,219.436054 1657,229.364611 C1657,239.293168 1659.12836,248.093349 1663.38515,255.765416 C1667.64194,263.437483 1673.43834,269.394527 1680.77451,273.636729 C1688.11068,277.878931 1696.39771,280 1705.63585,280 Z M1905,292.955521 C1901.20421,296.213206 1896.50472,298.701679 1890.90141,300.421012 C1885.29809,302.140346 1879.51411,303 1873.5493,303 C1859.08913,303 1847.88267,299.108935 1839.92958,291.326687 C1831.97649,283.54444 1828,272.414183 1828,257.935583 L1828,126 L1854.02817,126 L1854.02817,157.490798 L1895.23944,157.490798 L1895.23944,178.937117 L1854.02817,178.937117 L1854.02817,256.849693 C1854.02817,264.631941 1855.97122,270.604274 1859.85739,274.766871 C1863.74356,278.929469 1869.30161,281.010736 1876.53169,281.010736 C1884.48478,281.010736 1891.26288,278.748489 1896.8662,274.223926 L1905,292.955521 Z M2013.07952,156.3531 C2031.41891,156.3531 2045.99034,161.661672 2056.79423,172.278976 C2067.59813,182.89628 2073,198.459017 2073,218.967655 L2073,302 L2046.85288,302 L2046.85288,221.962264 C2046.85288,207.987352 2043.49374,197.460952 2036.77535,190.382749 C2030.05696,183.304547 2020.43346,179.765499 2007.90457,179.765499 C1993.74148,179.765499 1982.57459,183.894388 1974.40358,192.152291 C1966.23256,200.410194 1962.14712,212.252394 1962.14712,227.679245 L1962.14712,302 L1936,302 L1936,100 L1962.14712,100 L1962.14712,178.132075 C1967.59446,171.235365 1974.72129,165.881421 1983.52783,162.070081 C1992.33437,158.258741 2002.18484,156.3531 2013.07952,156.3531 Z M2323.4703,152.118644 C2304.95535,141.632716 2285.17007,135.39549 2264.11386,133.40678 L2264.11386,301 L2237.15842,301 L2237.15842,133.40678 C2215.92069,135.39549 2196.04465,141.632716 2177.5297,152.118644 L2168,130.694915 C2192.32355,116.231566 2219.73252,109 2250.22772,109 C2281.08596,109 2308.67645,116.231566 2333,130.694915 L2323.4703,152.118644 Z M2491,157 L2491,301.365672 L2466.1984,301.365672 L2466.1984,279.574627 C2460.92917,287.019938 2453.97934,292.785427 2445.3487,296.871269 C2436.71806,300.95711 2427.31535,303 2417.14028,303 C2397.88033,303 2382.70881,297.688486 2371.62525,287.065299 C2360.54169,276.442111 2355,260.779954 2355,240.078358 L2355,157 L2381.16433,157 L2381.16433,237.08209 C2381.16433,251.064747 2384.52568,261.642377 2391.2485,268.815299 C2397.97131,275.98822 2407.60114,279.574627 2420.13828,279.574627 C2433.9473,279.574627 2444.84899,275.398052 2452.84369,267.044776 C2460.83838,258.691501 2464.83567,246.888136 2464.83567,231.634328 L2464.83567,157 L2491,157 Z M2616,292.955521 C2612.20421,296.213206 2607.50472,298.701679 2601.90141,300.421012 C2596.29809,302.140346 2590.51411,303 2584.5493,303 C2570.08913,303 2558.88267,299.108935 2550.92958,291.326687 C2542.97649,283.54444 2539,272.414183 2539,257.935583 L2539,126 L2565.02817,126 L2565.02817,157.490798 L2606.23944,157.490798 L2606.23944,178.937117 L2565.02817,178.937117 L2565.02817,256.849693 C2565.02817,264.631941 2566.97122,270.604274 2570.85739,274.766871 C2574.74356,278.929469 2580.30161,281.010736 2587.53169,281.010736 C2595.48478,281.010736 2602.26288,278.748489 2607.8662,274.223926 L2616,292.955521 Z M2710.13612,303 C2695.79848,303 2682.91294,299.829976 2671.47913,293.489834 C2660.04531,287.149691 2651.10711,278.409483 2644.66425,267.268946 C2638.22138,256.12841 2635,243.493601 2635,229.36414 C2635,215.23468 2638.22138,202.599871 2644.66425,191.459335 C2651.10711,180.318798 2660.04531,171.623876 2671.47913,165.374307 C2682.91294,159.124738 2695.79848,156 2710.13612,156 C2724.47376,156 2737.31392,159.124738 2748.65699,165.374307 C2760.00006,171.623876 2768.89289,180.318798 2775.33575,191.459335 C2781.77862,202.599871 2785,215.23468 2785,229.36414 C2785,243.493601 2781.77862,256.12841 2775.33575,267.268946 C2768.89289,278.409483 2760.00006,287.149691 2748.65699,293.489834 C2737.31392,299.829976 2724.47376,303 2710.13612,303 Z M2709.63585,280 C2718.874,280 2727.16103,277.878931 2734.4972,273.636729 C2741.83337,269.394527 2747.58448,263.437483 2751.7507,255.765416 C2755.91692,248.093349 2758,239.293168 2758,229.364611 C2758,219.436054 2755.91692,210.635874 2751.7507,202.963807 C2747.58448,195.29174 2741.83337,189.379824 2734.4972,185.227882 C2727.16103,181.07594 2718.874,179 2709.63585,179 C2700.39771,179 2692.11068,181.07594 2684.77451,185.227882 C2677.43834,189.379824 2671.64194,195.29174 2667.38515,202.963807 C2663.12836,210.635874 2661,219.436054 2661,229.364611 C2661,239.293168 2663.12836,248.093349 2667.38515,255.765416 C2671.64194,263.437483 2677.43834,269.394527 2684.77451,273.636729 C2692.11068,277.878931 2700.39771,280 2709.63585,280 Z M2845.85614,181.476636 C2850.35909,173.165067 2857.02335,166.841143 2865.84912,162.504673 C2874.6749,158.168203 2885.39175,156 2898,156 L2898,181.205607 C2896.55906,181.024921 2894.57779,180.934579 2892.05614,180.934579 C2878.00695,180.934579 2866.97489,185.135472 2858.95965,193.537383 C2850.9444,201.939294 2846.93684,213.90958 2846.93684,229.448598 L2846.93684,301 L2821,301 L2821,157.35514 L2845.85614,157.35514 L2845.85614,181.476636 Z M2932,158 L2958,158 L2958,302 L2932,302 L2932,158 Z M2945.5,130 C2940.47433,130 2936.3013,128.368016 2932.98077,125.104 C2929.66024,121.839984 2928,117.85069 2928,113.136 C2928,108.42131 2929.66024,104.386683 2932.98077,101.032 C2936.3013,97.6773166 2940.47433,96 2945.5,96 C2950.52567,96 2954.6987,97.5866508 2958.01923,100.76 C2961.33976,103.933349 2963,107.87731 2963,112.592 C2963,117.488024 2961.33976,121.613317 2958.01923,124.968 C2954.6987,128.322683 2950.52567,130 2945.5,130 Z M3085.07952,156 C3103.41891,156 3117.99034,161.284994 3128.79423,171.85514 C3139.59813,182.425286 3145,197.918901 3145,218.336449 L3145,301 L3118.85288,301 L3118.85288,221.317757 C3118.85288,207.404915 3115.49374,196.925269 3108.77535,189.878505 C3102.05696,182.83174 3092.43346,179.308411 3079.90457,179.308411 C3065.74148,179.308411 3054.57459,183.418962 3046.40358,191.640187 C3038.23256,199.861412 3034.14712,211.651014 3034.14712,227.009346 L3034.14712,301 L3008,301 L3008,157.35514 L3033.05765,157.35514 L3033.05765,179.037383 C3038.32342,171.629246 3045.45025,165.937715 3054.43837,161.962617 C3063.42649,157.987519 3073.6401,156 3085.07952,156 Z M3331,157.360544 L3331,281.986395 C3331,307.20194 3324.75366,325.84121 3312.26079,337.904762 C3299.76792,349.968314 3281.11943,356 3256.31475,356 C3242.73554,356 3229.79023,354.140608 3217.47842,350.421769 C3205.16661,346.702929 3195.20867,341.39686 3187.60432,334.503401 L3200.09712,314.367347 C3206.7962,320.172365 3215.07939,324.752818 3224.94694,328.108844 C3234.8145,331.464869 3244.99875,333.142857 3255.5,333.142857 C3272.33821,333.142857 3284.78563,329.151967 3292.84263,321.170068 C3300.89962,313.188169 3304.92806,301.034095 3304.92806,284.707483 L3304.92806,273.278912 C3298.77215,280.71659 3291.21317,286.294766 3282.2509,290.013605 C3273.28862,293.732445 3263.55701,295.591837 3253.05576,295.591837 C3239.29549,295.591837 3226.84808,292.64402 3215.71313,286.748299 C3204.57818,280.852578 3195.84236,272.598693 3189.5054,261.986395 C3183.16843,251.374097 3180,239.265374 3180,225.659864 C3180,212.054354 3183.16843,199.945631 3189.5054,189.333333 C3195.84236,178.721035 3204.57818,170.512501 3215.71313,164.707483 C3226.84808,158.902465 3239.29549,156 3253.05576,156 C3263.91912,156 3274.01284,157.995445 3283.33723,161.986395 C3292.66162,165.977344 3300.31112,171.872977 3306.28597,179.673469 L3306.28597,157.360544 L3331,157.360544 Z M3255.63562,273 C3265.0384,273 3273.49174,271.001952 3280.99589,267.005797 C3288.50004,263.009642 3294.37669,257.42419 3298.62603,250.249275 C3302.87536,243.07436 3305,234.945939 3305,225.863768 C3305,211.877225 3300.38909,200.570091 3291.16712,191.942029 C3281.94516,183.313967 3270.10144,179 3255.63562,179 C3240.98897,179 3229.05484,183.313967 3219.83288,191.942029 C3210.61091,200.570091 3206,211.877225 3206,225.863768 C3206,234.945939 3208.12464,243.07436 3212.37397,250.249275 C3216.62331,257.42419 3222.49996,263.009642 3230.00411,267.005797 C3237.50826,271.001952 3246.05201,273 3255.63562,273 Z" id="OpenPathTutoring" fill-rule="nonzero"></path>
            </g>
        </g>
    </g>
</svg>