<?xml version="1.0" encoding="UTF-8"?>
<svg width="950px" height="950px" viewBox="0 0 950 950" version="1.1" xmlns="http://www.w3.org/2000/svg" xmlns:xlink="http://www.w3.org/1999/xlink">
    <!-- Generator: Sketch 55.2 (78181) - https://sketchapp.com -->
    <title>Group</title>
    <desc>Created with Sketch.</desc>
    <g id="Page-1" stroke="none" stroke-width="1" fill="none" fill-rule="evenodd">
        <g id="Custom-Preset">
            <g id="Group" transform="translate(30.000000, 30.000000)">
                <circle id="Oval" stroke="#FFFFFF" stroke-width="60" cx="445" cy="445" r="445"></circle>
                <path d="M445,193 C481.673281,193 513.664386,200.226219 540.974277,214.678873 C568.284167,229.131528 589.449014,250.517229 604.469453,278.83662 C619.489893,307.15601 627,341.431724 627,381.664789 L627,609 L550.92283,609 L550.92283,503.535211 L337.906752,503.535211 L337.906752,609 L263,609 L263,381.664789 C263,341.431724 270.510107,307.15601 285.530547,278.83662 C300.550986,250.517229 321.715833,229.131528 349.025723,214.678873 C376.335614,200.226219 408.326719,193 445,193 Z M551,440 L551,374.918567 C551,337.003068 541.637456,308.371432 522.912088,289.022801 C504.18672,269.67417 478.049618,260 444.5,260 C410.950382,260 384.81328,269.67417 366.087912,289.022801 C347.362544,308.371432 338,337.003068 338,374.918567 L338,440 L551,440 Z" id="A" fill="#FFFFFF" fill-rule="nonzero"></path>
            </g>
        </g>
    </g>
</svg>