<?xml version="1.0" encoding="UTF-8"?>
<svg width="1151px" height="489px" viewBox="0 0 1151 489" version="1.1" xmlns="http://www.w3.org/2000/svg" xmlns:xlink="http://www.w3.org/1999/xlink">
    <!-- Generator: Sketch 55.2 (78181) - https://sketchapp.com -->
    <title>Group</title>
    <desc>Created with Sketch.</desc>
    <g id="Page-1" stroke="none" stroke-width="1" fill="none" fill-rule="evenodd">
        <g id="logo" transform="translate(-389.000000, -147.000000)" fill-rule="nonzero">
            <g id="Group" transform="translate(389.000000, 147.000000)">
                <polygon id="Fill-2" fill="#FFFFFE" points="0 390.89828 122.339324 213.232542 122.339324 212.176368 10.6751173 212.176368 10.6751173 176 179.225584 176 179.225584 201.519468 58.3172403 377.776973 58.3172403 378.833148 181 378.833148 181 415 0 415"></polygon>
                <path d="M290.606246,330.475066 C259.715654,330.112493 230.290605,336.505219 230.290605,362.810807 C230.290605,379.889879 241.272658,387.694729 255.11918,387.694729 C272.857955,387.694729 285.248451,376.321402 289.511848,363.8699 C290.606246,360.69262 290.606246,357.477174 290.606246,354.290353 L290.606246,330.475066 Z M333.154563,373.487612 C333.154563,389.125936 333.858785,404.401687 336,415.078492 L296.611164,415.078492 L293.413617,395.871692 L292.357284,395.871692 C282.079453,409.391829 263.969534,419 241.272658,419 C206.518362,419 187,393.743964 187,367.438376 C187,324.063258 225.684614,301.669636 289.511848,302.032209 L289.511848,299.188877 C289.511848,287.806009 284.915373,268.95224 254.395925,268.95224 C237.370888,268.95224 219.64163,274.285872 207.945839,281.766315 L199.419046,253.304375 C212.209235,245.480443 234.544485,238 261.856869,238 C317.185859,238 333.154563,273.217238 333.154563,311.258724 L333.154563,373.487612 Z" id="Fill-3" fill="#FFFFFE"></path>
                <path d="M397.031176,343.345811 C397.031176,347.602298 397.402155,351.506457 398.08704,355.42014 C402.719525,373.160261 417.929675,385.92972 436.754495,385.92972 C464.397207,385.92972 480.710782,362.86661 480.710782,328.805197 C480.710782,298.295617 465.82405,273.442307 437.810359,273.442307 C419.73701,273.442307 403.07148,286.583137 398.458019,305.742087 C397.75411,309.274876 397.031176,313.19808 397.031176,316.749913 L397.031176,343.345811 Z M353.407819,300.419099 C353.407819,277.708316 352.722934,259.234974 352,242.913682 L390.305988,242.913682 L392.446253,269.528625 L393.150162,269.528625 C405.896629,249.998304 426.110244,239 452.354649,239 C492.058943,239 525,273.080458 525,327.034041 C525,389.462508 485.666685,419.648329 446.304833,419.648329 C424.711937,419.648329 406.619563,410.402136 397.75411,396.566174 L397.031176,396.566174 L397.031176,486 L353.407819,486 L353.407819,300.419099 Z" id="Fill-5" fill="#FFFFFE"></path>
                <polygon id="Fill-7" fill="#FFFFFE" points="602 415 646 415 646 242 602 242"></polygon>
                <path d="M669.409864,293.468075 C669.409864,273.564039 668.68588,256.845412 668,241.919769 L705.990112,241.919769 L708.114434,267.870359 L709.152779,267.870359 C716.983239,254.356215 735.816351,238 764.556614,238 C794.735319,238 826,257.560698 826,312.313487 L826,415 L782.313276,415 L782.313276,317.272806 C782.313276,292.399914 773.082479,273.564039 749.305318,273.564039 C731.891595,273.564039 719.812492,286.010022 715.201857,299.161754 C713.782467,302.728649 713.077535,308.05038 713.077535,313.019236 L713.077535,415 L669.409864,415 L669.409864,293.468075 Z" id="Fill-9" fill="#FFFFFE"></path>
                <path d="M967.920631,311.149987 C967.920631,306.910926 967.568151,303.014801 966.51071,299.442559 C961.871308,283.486546 949.44876,271.379028 930.986415,271.379028 C906.503326,271.379028 888.374408,292.707693 888.374408,327.839501 C888.374408,357.293825 903.302424,381.070667 930.633935,381.070667 C946.971871,381.070667 961.1854,370.430149 966.129651,354.46461 C967.568151,350.206497 967.920631,344.167027 967.920631,339.194467 L967.920631,311.149987 Z M1011.59008,389.586891 C1011.59008,425.795135 1004.14989,451.724847 986.02097,468.052374 C968.292165,484.027439 943.066009,489 919.28788,489 C897.2531,489 873.827452,484.027439 858.928016,475.158754 L868.483089,442.141713 C879.505242,448.514593 897.977114,455.278037 918.906821,455.278037 C947.324352,455.278037 968.625592,440.350829 968.625592,403.075676 L968.625592,388.177047 L967.920631,388.177047 C957.984498,403.437664 940.589121,413.735246 917.4969,413.735246 C874.532413,413.735246 844,378.250977 844,329.249345 C844,272.455463 880.915163,238 922.450676,238 C949.105806,238 964.348196,250.793389 972.531454,265.006148 L973.245941,265.006148 L975.027396,241.915177 L1013,241.915177 C1012.29504,253.622604 1011.59008,267.84489 1011.59008,291.631257 L1011.59008,389.586891 Z" id="Fill-10" fill="#FFFFFE"></path>
                <path d="M1036.90765,375.055356 C1046.4829,381.083245 1065.32822,387.824213 1080.95953,387.824213 C1100.18632,387.824213 1108.67434,379.676104 1108.67434,368.333404 C1108.67434,356.648426 1101.59781,350.991337 1080.25378,343.185506 C1046.4829,331.852314 1032.64457,313.445383 1032.64457,292.889711 C1032.64457,262.407986 1057.86067,239 1098.0214,239 C1117.22912,239 1133.93813,243.620748 1144.23819,249.296852 L1135.34962,279.778576 C1128.23494,275.528629 1114.02466,269.852525 1098.74622,269.852525 C1083.10537,269.852525 1074.56967,277.658356 1074.56967,288.287978 C1074.56967,299.259877 1082.77157,304.232411 1104.78321,312.371012 C1136.41777,323.352419 1150.62805,339.287344 1151,364.806043 C1151,396.324107 1126.47057,419 1080.60665,419 C1059.65364,419 1040.81786,414.036974 1028,406.953729 L1036.90765,375.055356 Z" id="Fill-11" fill="#FFFFFE"></path>
                <path d="M537,163.717855 C537,151.712628 546.620531,142 558.495284,142 C570.398333,142 580,151.712628 580,163.717855 L580,415 L537,415 L537,163.717855 Z" id="Fill-12" fill="#5FD561"></path>
                <path d="M546.514781,249 C546.514781,249 524.350737,209.098682 505.737891,199.342277 C505.737891,199.342277 263.532878,245.459139 205,11.3054114 C205,11.3054114 393.660949,-64.9563636 529.663253,178.658697 C529.663253,178.658697 416.719932,66.302982 296.074416,45.0102223 C296.074416,45.0102223 481.803009,128.991455 548,227.136134 L546.514781,249 Z" id="Fill-13" fill="#5FD561"></path>
                <path d="M606,215.809225 C606,215.809225 607.769907,31.1907755 803.74428,25 C803.74428,25 818.817036,207.818362 617.523426,222 C617.523426,222 674.284152,123.490476 742.549272,71.1355637 C742.549272,71.1355637 666.291023,103.965722 606,215.809225" id="Fill-14" fill="#5FD561"></path>
            </g>
        </g>
    </g>
</svg>