<?xml version="1.0" encoding="UTF-8"?>
<svg width="158.49mm" height="109.8mm" version="1.1" viewBox="0 0 158.49 109.8" xmlns="http://www.w3.org/2000/svg">
 <g transform="translate(-44.92 -65.136)">
  <g fill="#fff" stroke-width=".26458">
   <path d="m132.76 108.45c0-3.1764 2.5454-5.7462 5.6873-5.7462 3.1494 0 5.6898 2.5698 5.6898 5.7462v66.485h-11.377z"/>
   <path d="m135.28 131.02s-5.8642-10.557-10.789-13.139c0 0-64.083 12.202-79.57-49.751 0 0 49.917-20.178 85.9 44.279 0 0-29.883-29.727-61.804-35.361 0 0 49.141 22.22 66.655 48.187z"/>
   <path d="m151.02 122.24s0.46829-48.847 52.32-50.485c0 0 3.988 48.371-49.271 52.123 0 0 15.018-26.064 33.08-39.916 0 0-20.177 8.6863-36.129 38.278"/>
  </g>
 </g>
</svg>
