<?xml version="1.0" encoding="UTF-8"?>
<svg width="950px" height="950px" viewBox="0 0 950 950" version="1.1" xmlns="http://www.w3.org/2000/svg" xmlns:xlink="http://www.w3.org/1999/xlink">
    <!-- Generator: Sketch 55.2 (78181) - https://sketchapp.com -->
    <title>Group</title>
    <desc>Created with Sketch.</desc>
    <g id="Page-1" stroke="none" stroke-width="1" fill="none" fill-rule="evenodd">
        <g id="Custom-Preset" transform="translate(-25.000000, -25.000000)">
            <g id="Group" transform="translate(55.000000, 55.000000)">
                <path d="M445,207 C481.673281,207 513.664386,214.226219 540.974277,228.678873 C568.284167,243.131528 589.449014,264.517229 604.469453,292.83662 C619.489893,321.15601 627,355.431724 627,395.664789 L627,623 L550.92283,623 L550.92283,517.535211 L337.906752,517.535211 L337.906752,623 L263,623 L263,395.664789 C263,355.431724 270.510107,321.15601 285.530547,292.83662 C300.550986,264.517229 321.715833,243.131528 349.025723,228.678873 C376.335614,214.226219 408.326719,207 445,207 Z M551,454 L551,388.918567 C551,351.003068 541.637456,322.371432 522.912088,303.022801 C504.18672,283.67417 478.049618,274 444.5,274 C410.950382,274 384.81328,283.67417 366.087912,303.022801 C347.362544,322.371432 338,351.003068 338,388.918567 L338,454 L551,454 Z" id="A" fill="#171D96" fill-rule="nonzero"></path>
                <circle id="Oval" stroke="#171D96" stroke-width="60" cx="445" cy="445" r="445"></circle>
            </g>
        </g>
    </g>
</svg>