<?xml version="1.0" encoding="UTF-8" standalone="no"?>
<svg
   width="1151"
   height="683.94727"
   viewBox="0 0 1151 683.94728"
   version="1.1"
   id="svg912"
   sodipodi:docname="logo-tagline.svg"
   inkscape:version="1.1.2 (b8e25be8, 2022-02-05)"
   xmlns:inkscape="http://www.inkscape.org/namespaces/inkscape"
   xmlns:sodipodi="http://sodipodi.sourceforge.net/DTD/sodipodi-0.dtd"
   xmlns="http://www.w3.org/2000/svg"
   xmlns:svg="http://www.w3.org/2000/svg"
   xmlns:rdf="http://www.w3.org/1999/02/22-rdf-syntax-ns#"
   xmlns:cc="http://creativecommons.org/ns#"
   xmlns:dc="http://purl.org/dc/elements/1.1/">
  <defs
     id="defs916" />
  <sodipodi:namedview
     id="namedview914"
     pagecolor="#505050"
     bordercolor="#eeeeee"
     borderopacity="1"
     inkscape:pageshadow="0"
     inkscape:pageopacity="0"
     inkscape:pagecheckerboard="0"
     showgrid="false"
     fit-margin-top="0"
     fit-margin-left="0"
     fit-margin-right="0"
     fit-margin-bottom="0"
     inkscape:zoom="0.35230235"
     inkscape:cx="395.96671"
     inkscape:cy="380.35512"
     inkscape:window-width="1312"
     inkscape:window-height="916"
     inkscape:window-x="0"
     inkscape:window-y="39"
     inkscape:window-maximized="0"
     inkscape:current-layer="svg912" />
  <!-- Generator: Sketch 55.2 (78181) - https://sketchapp.com -->
  <title
     id="title895">Group</title>
  <desc
     id="desc897">Created with Sketch.</desc>
  <g
     id="Page-1"
     stroke="none"
     stroke-width="1"
     fill="none"
     fill-rule="evenodd"
     transform="translate(1.2584365e-5)">
    <g
       id="logo"
       transform="translate(-389,-147)"
       fill-rule="nonzero">
      <g
         id="Group"
         transform="translate(389,147)">
        <polygon
           id="Fill-2"
           fill="#fffffe"
           points="181,415 0,415 0,390.89828 122.33932,213.23254 122.33932,212.17637 10.675117,212.17637 10.675117,176 179.22558,176 179.22558,201.51947 58.31724,377.77697 58.31724,378.83315 181,378.83315 " />
        <path
           d="m 290.60625,330.47507 c -30.8906,-0.36258 -60.31565,6.03015 -60.31565,32.33574 0,17.07907 10.98206,24.88392 24.82858,24.88392 17.73877,0 30.12927,-11.37333 34.39267,-23.82483 1.0944,-3.17728 1.0944,-6.39273 1.0944,-9.57955 z m 42.54831,43.01254 c 0,15.63833 0.70422,30.91408 2.84544,41.59088 h -39.38884 l -3.19754,-19.2068 h -1.05634 C 282.07945,409.39183 263.96953,419 241.27266,419 206.51836,419 187,393.74396 187,367.43838 c 0,-43.37512 38.68461,-65.76874 102.51185,-65.40617 v -2.84333 c 0,-11.38287 -4.59648,-30.23664 -35.11593,-30.23664 -17.02503,0 -34.75429,5.33363 -46.45008,12.81408 l -8.52679,-28.46195 C 212.20923,245.48044 234.54448,238 261.85687,238 c 55.32899,0 71.29769,35.21724 71.29769,73.25872 z"
           id="Fill-3"
           fill="#fffffe" />
        <path
           d="m 397.03118,343.34581 c 0,4.25649 0.37097,8.16065 1.05586,12.07433 4.63248,17.74012 19.84263,30.50958 38.66746,30.50958 27.64271,0 43.95628,-23.06311 43.95628,-57.12452 0,-30.50958 -14.88673,-55.36289 -42.90042,-55.36289 -18.07335,0 -34.73888,13.14083 -39.35234,32.29978 -0.70391,3.53279 -1.42684,7.45599 -1.42684,11.00782 z M 353.40782,300.4191 c 0,-22.71078 -0.68489,-41.18413 -1.40782,-57.50542 h 38.30599 l 2.14026,26.61494 h 0.70391 C 405.89663,249.9983 426.11024,239 452.35465,239 492.05894,239 525,273.08046 525,327.03404 c 0,62.42847 -39.33332,92.61429 -78.69517,92.61429 -21.59289,0 -39.68527,-9.24619 -48.55072,-23.08216 h -0.72293 V 486 h -43.62336 z"
           id="Fill-5"
           fill="#fffffe" />
        <polygon
           id="Fill-7"
           fill="#fffffe"
           points="646,242 602,242 602,415 646,415 " />
        <path
           d="m 669.40986,293.46807 c 0,-19.90403 -0.72398,-36.62266 -1.40986,-51.5483 h 37.99011 l 2.12432,25.95059 h 1.03835 C 716.98324,254.35621 735.81635,238 764.55661,238 794.73532,238 826,257.5607 826,312.31349 V 415 h -43.68672 v -97.72719 c 0,-24.8729 -9.2308,-43.70877 -33.00796,-43.70877 -17.41372,0 -29.49283,12.44598 -34.10346,25.59771 -1.41939,3.5669 -2.12433,8.88863 -2.12433,13.85749 V 415 h -43.66767 z"
           id="Fill-9"
           fill="#fffffe" />
        <path
           d="m 967.92063,311.14999 c 0,-4.23906 -0.35248,-8.13519 -1.40992,-11.70743 -4.6394,-15.95601 -17.06195,-28.06353 -35.5243,-28.06353 -24.48308,0 -42.612,21.32866 -42.612,56.46047 0,29.45433 14.92801,53.23117 42.25952,53.23117 16.33794,0 30.55147,-10.64052 35.49572,-26.60606 1.4385,-4.25811 1.79098,-10.29758 1.79098,-15.27014 z m 43.66947,78.4369 c 0,36.20825 -7.4402,62.13796 -25.56913,78.46548 C 968.29216,484.02744 943.06601,489 919.28788,489 c -22.03478,0 -45.46043,-4.97256 -60.35986,-13.84125 l 9.55507,-33.01704 c 11.02215,6.37288 29.49402,13.13633 50.42373,13.13633 28.41753,0 49.71877,-14.92721 49.71877,-52.20236 v -14.89863 h -0.70496 c -9.93613,15.26061 -27.33151,25.5582 -50.42373,25.5582 C 874.53241,413.73525 844,378.25098 844,329.24934 844,272.45546 880.91516,238 922.45068,238 c 26.65513,0 41.89752,12.79339 50.08077,27.00615 h 0.71449 l 1.78146,-23.09097 H 1013 c -0.705,11.70742 -1.4099,25.92971 -1.4099,49.71608 z"
           id="Fill-10"
           fill="#fffffe" />
        <path
           d="m 1036.9077,375.05536 c 9.5752,6.02788 28.4205,12.76885 44.0518,12.76885 19.2268,0 27.7148,-8.14811 27.7148,-19.49081 0,-11.68497 -7.0765,-17.34206 -28.4205,-25.14789 -33.7709,-11.3332 -47.6092,-29.74013 -47.6092,-50.2958 0,-30.48172 25.2161,-53.88971 65.3768,-53.88971 19.2077,0 35.9167,4.62075 46.2168,10.29685 l -8.8886,30.48173 c -7.1147,-4.24995 -21.3249,-9.92605 -36.6034,-9.92605 -15.6408,0 -24.1765,7.80583 -24.1765,18.43545 0,10.9719 8.2019,15.94443 30.2135,24.08303 31.6346,10.98141 45.8449,26.91633 46.2168,52.43503 C 1151,396.32411 1126.4706,419 1080.6067,419 1059.6536,419 1040.8179,414.03697 1028,406.95373 Z"
           id="Fill-11"
           fill="#fffffe" />
        <path
           d="M 537,163.71785 C 537,151.71263 546.62053,142 558.49528,142 570.39833,142 580,151.71263 580,163.71785 V 415 h -43 z"
           id="Fill-12"
           fill="#5fd561" />
        <path
           d="m 546.51478,249 c 0,0 -22.16404,-39.90132 -40.77689,-49.65772 0,0 -242.20501,46.11686 -300.73789,-188.036869 0,0 188.66095,-76.261775 324.66325,167.353289 0,0 -112.94332,-112.355718 -233.58883,-133.648478 0,0 185.72859,83.981228 251.92558,182.125908 z"
           id="Fill-13"
           fill="#5fd561" />
        <path
           d="m 606,215.80922 c 0,0 1.76991,-184.618445 197.74428,-190.80922 0,0 15.07276,182.81836 -186.22085,197 0,0 56.76072,-98.50952 125.02584,-150.864436 0,0 -76.25825,32.830156 -136.54927,144.673656"
           id="Fill-14"
           fill="#5fd561" />
      </g>
    </g>
  </g>
  <metadata
     id="metadata5527">
    <rdf:RDF>
      <cc:Work
         rdf:about="">
        <dc:title>Group</dc:title>
      </cc:Work>
    </rdf:RDF>
  </metadata>
  <g
     aria-label="The idea garden"
     id="text7555"
     style="font-size:96px;line-height:1.25"
     transform="matrix(1.3049025,0,0,1.3049025,-24.153269,-456.97147)">
    <path
       d="m 97.800247,787.64682 h -23.616 v -6.144 h 54.336003 v 6.144 h -23.616 v 61.056 h -7.104003 z"
       style="font-family:Montserrat;-inkscape-font-specification:Montserrat;fill:#ffffff"
       id="path9119" />
    <path
       d="m 164.15725,797.82282 q 9.504,0 15.072,5.568 5.664,5.472 5.664,16.032 v 29.28 h -6.816 v -28.608 q 0,-7.872 -3.936,-12 -3.936,-4.128 -11.232,-4.128 -8.16,0 -12.96,4.896 -4.704,4.8 -4.704,13.344 v 26.496 h -6.816 v -71.232 h 6.816 v 29.568 q 2.784,-4.416 7.68,-6.816 4.896,-2.4 11.232,-2.4 z"
       style="font-family:Montserrat;-inkscape-font-specification:Montserrat;fill:#ffffff"
       id="path9121" />
    <path
       d="m 247.64725,825.56682 h -42.24 q 0.576,7.872 6.048,12.768 5.472,4.8 13.824,4.8 4.704,0 8.64,-1.632 3.936,-1.728 6.816,-4.992 l 3.84,4.416 q -3.36,4.032 -8.448,6.144 -4.992,2.112 -11.04,2.112 -7.776,0 -13.824,-3.264 -5.952,-3.36 -9.312,-9.216 -3.36,-5.856 -3.36,-13.248 0,-7.392 3.168,-13.248 3.264,-5.856 8.832,-9.12 5.664,-3.264 12.672,-3.264 7.008,0 12.576,3.264 5.568,3.264 8.736,9.12 3.168,5.76 3.168,13.248 z m -24.384,-21.888 q -7.296,0 -12.288,4.704 -4.896,4.608 -5.568,12.096 h 35.808 q -0.672,-7.488 -5.664,-12.096 -4.896,-4.704 -12.288,-4.704 z"
       style="font-family:Montserrat;-inkscape-font-specification:Montserrat;fill:#ffffff"
       id="path9123" />
    <path
       d="m 286.74175,798.20682 h 6.816 v 50.496 h -6.816 z m 3.456,-11.04 q -2.112,0 -3.552,-1.44 -1.44,-1.44 -1.44,-3.456 0,-1.92 1.44,-3.36 1.44,-1.44 3.552,-1.44 2.112,0 3.552,1.44 1.44,1.344 1.44,3.264 0,2.112 -1.44,3.552 -1.44,1.44 -3.552,1.44 z"
       style="font-family:Montserrat;-inkscape-font-specification:Montserrat;fill:#ffffff"
       id="path9125" />
    <path
       d="m 358.69675,777.47082 v 71.232 h -6.528 v -9.984 q -3.072,5.088 -8.16,7.776 -4.992,2.688 -11.328,2.688 -7.104,0 -12.864,-3.264 -5.76,-3.264 -9.024,-9.12 -3.264,-5.856 -3.264,-13.344 0,-7.488 3.264,-13.344 3.264,-5.856 9.024,-9.024 5.76,-3.264 12.864,-3.264 6.144,0 11.04,2.592 4.992,2.496 8.16,7.392 v -30.336 z m -25.44,65.664 q 5.28,0 9.504,-2.4 4.32,-2.496 6.72,-7.008 2.496,-4.512 2.496,-10.272 0,-5.76 -2.496,-10.272 -2.4,-4.512 -6.72,-6.912 -4.224,-2.496 -9.504,-2.496 -5.376,0 -9.696,2.496 -4.224,2.4 -6.72,6.912 -2.4,4.512 -2.4,10.272 0,5.76 2.4,10.272 2.496,4.512 6.72,7.008 4.32,2.4 9.696,2.4 z"
       style="font-family:Montserrat;-inkscape-font-specification:Montserrat;fill:#ffffff"
       id="path9127" />
    <path
       d="m 421.64725,825.56682 h -42.24 q 0.576,7.872 6.048,12.768 5.472,4.8 13.824,4.8 4.704,0 8.64,-1.632 3.936,-1.728 6.816,-4.992 l 3.84,4.416 q -3.36,4.032 -8.448,6.144 -4.992,2.112 -11.04,2.112 -7.776,0 -13.824,-3.264 -5.952,-3.36 -9.312,-9.216 -3.36,-5.856 -3.36,-13.248 0,-7.392 3.168,-13.248 3.264,-5.856 8.832,-9.12 5.664,-3.264 12.672,-3.264 7.008,0 12.576,3.264 5.568,3.264 8.736,9.12 3.168,5.76 3.168,13.248 z m -24.384,-21.888 q -7.296,0 -12.288,4.704 -4.896,4.608 -5.568,12.096 h 35.808 q -0.672,-7.488 -5.664,-12.096 -4.896,-4.704 -12.288,-4.704 z"
       style="font-family:Montserrat;-inkscape-font-specification:Montserrat;fill:#ffffff"
       id="path9129" />
    <path
       d="m 451.78075,797.82282 q 9.888,0 15.168,4.992 5.28,4.896 5.28,14.592 v 31.296 h -6.528 v -7.872 q -2.304,3.936 -6.816,6.144 -4.416,2.208 -10.56,2.208 -8.448,0 -13.44,-4.032 -4.992,-4.032 -4.992,-10.656 0,-6.432 4.608,-10.368 4.704,-3.936 14.88,-3.936 h 16.032 v -3.072 q 0,-6.528 -3.648,-9.888 -3.648,-3.456 -10.656,-3.456 -4.8,0 -9.216,1.632 -4.416,1.536 -7.584,4.32 l -3.072,-5.088 q 3.84,-3.264 9.216,-4.992 5.376,-1.824 11.328,-1.824 z m -2.4,45.984 q 5.76,0 9.888,-2.592 4.128,-2.688 6.144,-7.68 v -8.256 h -15.84 q -12.96,0 -12.96,9.024 0,4.416 3.36,7.008 3.36,2.496 9.408,2.496 z"
       style="font-family:Montserrat;-inkscape-font-specification:Montserrat;fill:#ffffff"
       id="path9131" />
    <path
       d="m 562.61875,798.20682 v 44.352 q 0,12.864 -6.336,19.008 -6.24,6.24 -18.912,6.24 -7.008,0 -13.344,-2.112 -6.24,-2.016 -10.176,-5.664 l 3.456,-5.184 q 3.648,3.264 8.832,5.088 5.28,1.824 11.04,1.824 9.6,0 14.112,-4.512 4.512,-4.416 4.512,-13.824 v -6.432 q -3.168,4.8 -8.352,7.296 -5.088,2.496 -11.328,2.496 -7.104,0 -12.96,-3.072 -5.76,-3.168 -9.12,-8.736 -3.264,-5.664 -3.264,-12.768 0,-7.104 3.264,-12.672 3.36,-5.568 9.12,-8.64 5.76,-3.072 12.96,-3.072 6.432,0 11.616,2.592 5.184,2.592 8.352,7.488 v -9.696 z m -25.824,42.528 q 5.472,0 9.888,-2.304 4.416,-2.4 6.816,-6.624 2.496,-4.224 2.496,-9.6 0,-5.376 -2.496,-9.504 -2.4,-4.224 -6.816,-6.528 -4.32,-2.4 -9.888,-2.4 -5.472,0 -9.888,2.304 -4.32,2.304 -6.816,6.528 -2.4,4.224 -2.4,9.6 0,5.376 2.4,9.6 2.496,4.224 6.816,6.624 4.416,2.304 9.888,2.304 z"
       style="font-family:Montserrat;-inkscape-font-specification:Montserrat;fill:#ffffff"
       id="path9133" />
    <path
       d="m 599.34325,797.82282 q 9.888,0 15.168,4.992 5.28,4.896 5.28,14.592 v 31.296 h -6.528 v -7.872 q -2.304,3.936 -6.816,6.144 -4.416,2.208 -10.56,2.208 -8.448,0 -13.44,-4.032 -4.992,-4.032 -4.992,-10.656 0,-6.432 4.608,-10.368 4.704,-3.936 14.88,-3.936 h 16.032 v -3.072 q 0,-6.528 -3.648,-9.888 -3.648,-3.456 -10.656,-3.456 -4.8,0 -9.216,1.632 -4.416,1.536 -7.584,4.32 l -3.072,-5.088 q 3.84,-3.264 9.216,-4.992 5.376,-1.824 11.328,-1.824 z m -2.4,45.984 q 5.76,0 9.888,-2.592 4.128,-2.688 6.144,-7.68 v -8.256 h -15.84 q -12.96,0 -12.96,9.024 0,4.416 3.36,7.008 3.36,2.496 9.408,2.496 z"
       style="font-family:Montserrat;-inkscape-font-specification:Montserrat;fill:#ffffff"
       id="path9135" />
    <path
       d="m 644.83225,808.09482 q 2.4,-5.088 7.104,-7.68 4.8,-2.592 11.808,-2.592 v 6.624 l -1.632,-0.096 q -7.968,0 -12.48,4.896 -4.512,4.896 -4.512,13.728 v 25.728 h -6.816 v -50.496 h 6.528 z"
       style="font-family:Montserrat;-inkscape-font-specification:Montserrat;fill:#ffffff"
       id="path9137" />
    <path
       d="m 721.50925,777.47082 v 71.232 h -6.528 v -9.984 q -3.072,5.088 -8.16,7.776 -4.992,2.688 -11.328,2.688 -7.104,0 -12.864,-3.264 -5.76,-3.264 -9.024,-9.12 -3.264,-5.856 -3.264,-13.344 0,-7.488 3.264,-13.344 3.264,-5.856 9.024,-9.024 5.76,-3.264 12.864,-3.264 6.144,0 11.04,2.592 4.992,2.496 8.16,7.392 v -30.336 z m -25.44,65.664 q 5.28,0 9.504,-2.4 4.32,-2.496 6.72,-7.008 2.496,-4.512 2.496,-10.272 0,-5.76 -2.496,-10.272 -2.4,-4.512 -6.72,-6.912 -4.224,-2.496 -9.504,-2.496 -5.376,0 -9.696,2.496 -4.224,2.4 -6.72,6.912 -2.4,4.512 -2.4,10.272 0,5.76 2.4,10.272 2.496,4.512 6.72,7.008 4.32,2.4 9.696,2.4 z"
       style="font-family:Montserrat;-inkscape-font-specification:Montserrat;fill:#ffffff"
       id="path9139" />
    <path
       d="m 784.45975,825.56682 h -42.24 q 0.576,7.872 6.048,12.768 5.472,4.8 13.824,4.8 4.704,0 8.64,-1.632 3.936,-1.728 6.816,-4.992 l 3.84,4.416 q -3.36,4.032 -8.448,6.144 -4.992,2.112 -11.04,2.112 -7.776,0 -13.824,-3.264 -5.952,-3.36 -9.312,-9.216 -3.36,-5.856 -3.36,-13.248 0,-7.392 3.168,-13.248 3.264,-5.856 8.832,-9.12 5.664,-3.264 12.672,-3.264 7.008,0 12.576,3.264 5.568,3.264 8.736,9.12 3.168,5.76 3.168,13.248 z m -24.384,-21.888 q -7.296,0 -12.288,4.704 -4.896,4.608 -5.568,12.096 h 35.808 q -0.672,-7.488 -5.664,-12.096 -4.896,-4.704 -12.288,-4.704 z"
       style="font-family:Montserrat;-inkscape-font-specification:Montserrat;fill:#ffffff"
       id="path9141" />
    <path
       d="m 824.15725,797.82282 q 9.504,0 15.072,5.568 5.664,5.472 5.664,16.032 v 29.28 h -6.816 v -28.608 q 0,-7.872 -3.936,-12 -3.936,-4.128 -11.232,-4.128 -8.16,0 -12.96,4.896 -4.704,4.8 -4.704,13.344 v 26.496 h -6.816 v -50.496 h 6.528 v 9.312 q 2.784,-4.608 7.68,-7.104 4.992,-2.592 11.52,-2.592 z"
       style="font-family:Montserrat;-inkscape-font-specification:Montserrat;fill:#ffffff"
       id="path9143" />
  </g>
</svg>
