<?xml version="1.0" encoding="UTF-8"?>
<svg width="778px" height="778px" viewBox="0 0 778 778" version="1.1" xmlns="http://www.w3.org/2000/svg" xmlns:xlink="http://www.w3.org/1999/xlink">
    <!-- Generator: Sketch 55.2 (78181) - https://sketchapp.com -->
    <title>logo-bg</title>
    <desc>Created with Sketch.</desc>
    <g id="logo-bg" stroke="none" stroke-width="1" fill="none" fill-rule="evenodd">
        <circle id="Oval" fill="#1C4D65" cx="389" cy="390" r="376"></circle>
        <g id="logo" transform="translate(202.000000, 145.000000)" fill="#FFFFFF">
            <g id="Leaves" transform="translate(0.000000, -0.000000)">
                <g id="Group" transform="translate(135.469307, 157.978261) scale(-1, 1) translate(-135.469307, -157.978261) translate(102.969307, 115.978261)">
                    <path d="M13.5786765,6.4398618 C20.9873992,-0.215637121 29.8090907,-1.31837786 40.0437507,3.13163956 C46.1095778,5.76905358 52.0001026,9.9238445 56.5634499,17.2253046 C67.2194468,34.2751435 66.4416443,56.297868 54.2300424,83.2934783 C52.9834596,67.627215 47.825392,51.7613738 38.7558394,35.6959547 C29.6862869,19.6305356 21.2938993,9.87850466 13.5786765,6.4398618 Z" id="Path-4"></path>
                    <path d="M7.79678176,13.3806418 C15.9881434,17.4363801 23.6094034,25.7371384 30.6605616,38.2829165 C37.7117199,50.8286947 42.9290194,63.505065 46.3124603,76.3120276 C41.1510868,70.8237216 35.9337873,66.4460502 30.6605616,63.1790135 C22.7507232,58.2784583 17.6449652,55.7576577 12.5214157,52.2458178 C5.34102523,47.3241551 -1.47799683,39.7573561 1.04383849,26.5630785 C1.96028492,21.768218 4.21126601,17.3740724 7.79678176,13.3806418 Z" id="Path-8"></path>
                </g>
                <g id="Group" transform="translate(101.636963, 65.195652) scale(-1, 1) translate(-101.636963, -65.195652) translate(69.136963, 23.195652)">
                    <path d="M13.5786765,6.4398618 C20.9873992,-0.215637121 29.8090907,-1.31837786 40.0437507,3.13163956 C46.1095778,5.76905358 52.0001026,9.9238445 56.5634499,17.2253046 C67.2194468,34.2751435 66.4416443,56.297868 54.2300424,83.2934783 C52.9834596,67.627215 47.825392,51.7613738 38.7558394,35.6959547 C29.6862869,19.6305356 21.2938993,9.87850466 13.5786765,6.4398618 Z" id="Path-4"></path>
                    <path d="M7.79678176,13.3806418 C15.9881434,17.4363801 23.6094034,25.7371384 30.6605616,38.2829165 C37.7117199,50.8286947 42.9290194,63.505065 46.3124603,76.3120276 C41.1510868,70.8237216 35.9337873,66.4460502 30.6605616,63.1790135 C22.7507232,58.2784583 17.6449652,55.7576577 12.5214157,52.2458178 C5.34102523,47.3241551 -1.47799683,39.7573561 1.04383849,26.5630785 C1.96028492,21.768218 4.21126601,17.3740724 7.79678176,13.3806418 Z" id="Path-8"></path>
                </g>
                <g id="Group" transform="translate(191.504126, 42.000000) scale(-1, 1) translate(-191.504126, -42.000000) translate(159.004126, 0.000000)">
                    <path d="M13.5786765,6.4398618 C20.9873992,-0.215637121 29.8090907,-1.31837786 40.0437507,3.13163956 C46.1095778,5.76905358 52.0001026,9.9238445 56.5634499,17.2253046 C67.2194468,34.2751435 66.4416443,56.297868 54.2300424,83.2934783 C52.9834596,67.627215 47.825392,51.7613738 38.7558394,35.6959547 C29.6862869,19.6305356 21.2938993,9.87850466 13.5786765,6.4398618 Z" id="Path-4"></path>
                    <path d="M7.79678176,13.3806418 C15.9881434,17.4363801 23.6094034,25.7371384 30.6605616,38.2829165 C37.7117199,50.8286947 42.9290194,63.505065 46.3124603,76.3120276 C41.1510868,70.8237216 35.9337873,66.4460502 30.6605616,63.1790135 C22.7507232,58.2784583 17.6449652,55.7576577 12.5214157,52.2458178 C5.34102523,47.3241551 -1.47799683,39.7573561 1.04383849,26.5630785 C1.96028492,21.768218 4.21126601,17.3740724 7.79678176,13.3806418 Z" id="Path-8"></path>
                </g>
                <g id="Group" transform="translate(252.550166, 37.956522)">
                    <path d="M13.5786765,6.4398618 C20.9873992,-0.215637121 29.8090907,-1.31837786 40.0437507,3.13163956 C46.1095778,5.76905358 52.0001026,9.9238445 56.5634499,17.2253046 C67.2194468,34.2751435 66.4416443,56.297868 54.2300424,83.2934783 C52.9834596,67.627215 47.825392,51.7613738 38.7558394,35.6959547 C29.6862869,19.6305356 21.2938993,9.87850466 13.5786765,6.4398618 Z" id="Path-4"></path>
                    <path d="M7.79678176,13.3806418 C15.9881434,17.4363801 23.6094034,25.7371384 30.6605616,38.2829165 C37.7117199,50.8286947 42.9290194,63.505065 46.3124603,76.3120276 C41.1510868,70.8237216 35.9337873,66.4460502 30.6605616,63.1790135 C22.7507232,58.2784583 17.6449652,55.7576577 12.5214157,52.2458178 C5.34102523,47.3241551 -1.47799683,39.7573561 1.04383849,26.5630785 C1.96028492,21.768218 4.21126601,17.3740724 7.79678176,13.3806418 Z" id="Path-8"></path>
                </g>
                <g id="Group" transform="translate(199.687129, 102.271739)">
                    <path d="M13.5786765,6.4398618 C20.9873992,-0.215637121 29.8090907,-1.31837786 40.0437507,3.13163956 C46.1095778,5.76905358 52.0001026,9.9238445 56.5634499,17.2253046 C67.2194468,34.2751435 66.4416443,56.297868 54.2300424,83.2934783 C52.9834596,67.627215 47.825392,51.7613738 38.7558394,35.6959547 C29.6862869,19.6305356 21.2938993,9.87850466 13.5786765,6.4398618 Z" id="Path-4"></path>
                    <path d="M7.79678176,13.3806418 C15.9881434,17.4363801 23.6094034,25.7371384 30.6605616,38.2829165 C37.7117199,50.8286947 42.9290194,63.505065 46.3124603,76.3120276 C41.1510868,70.8237216 35.9337873,66.4460502 30.6605616,63.1790135 C22.7507232,58.2784583 17.6449652,55.7576577 12.5214157,52.2458178 C5.34102523,47.3241551 -1.47799683,39.7573561 1.04383849,26.5630785 C1.96028492,21.768218 4.21126601,17.3740724 7.79678176,13.3806418 Z" id="Path-8"></path>
                </g>
                <g id="Group" transform="translate(249.378384, 206.652174)">
                    <path d="M13.5786765,6.4398618 C20.9873992,-0.215637121 29.8090907,-1.31837786 40.0437507,3.13163956 C46.1095778,5.76905358 52.0001026,9.9238445 56.5634499,17.2253046 C67.2194468,34.2751435 66.4416443,56.297868 54.2300424,83.2934783 C52.9834596,67.627215 47.825392,51.7613738 38.7558394,35.6959547 C29.6862869,19.6305356 21.2938993,9.87850466 13.5786765,6.4398618 Z" id="Path-4"></path>
                    <path d="M7.79678176,13.3806418 C15.9881434,17.4363801 23.6094034,25.7371384 30.6605616,38.2829165 C37.7117199,50.8286947 42.9290194,63.505065 46.3124603,76.3120276 C41.1510868,70.8237216 35.9337873,66.4460502 30.6605616,63.1790135 C22.7507232,58.2784583 17.6449652,55.7576577 12.5214157,52.2458178 C5.34102523,47.3241551 -1.47799683,39.7573561 1.04383849,26.5630785 C1.96028492,21.768218 4.21126601,17.3740724 7.79678176,13.3806418 Z" id="Path-8"></path>
                </g>
                <g id="Group" transform="translate(308.584986, 138.119565)">
                    <path d="M13.5786765,6.4398618 C20.9873992,-0.215637121 29.8090907,-1.31837786 40.0437507,3.13163956 C46.1095778,5.76905358 52.0001026,9.9238445 56.5634499,17.2253046 C67.2194468,34.2751435 66.4416443,56.297868 54.2300424,83.2934783 C52.9834596,67.627215 47.825392,51.7613738 38.7558394,35.6959547 C29.6862869,19.6305356 21.2938993,9.87850466 13.5786765,6.4398618 Z" id="Path-4"></path>
                    <path d="M7.79678176,13.3806418 C15.9881434,17.4363801 23.6094034,25.7371384 30.6605616,38.2829165 C37.7117199,50.8286947 42.9290194,63.505065 46.3124603,76.3120276 C41.1510868,70.8237216 35.9337873,66.4460502 30.6605616,63.1790135 C22.7507232,58.2784583 17.6449652,55.7576577 12.5214157,52.2458178 C5.34102523,47.3241551 -1.47799683,39.7573561 1.04383849,26.5630785 C1.96028492,21.768218 4.21126601,17.3740724 7.79678176,13.3806418 Z" id="Path-8"></path>
                </g>
                <g id="Group" transform="translate(32.915014, 154.815217) scale(-1, 1) translate(-32.915014, -154.815217) translate(0.415014, 112.815217)">
                    <path d="M13.5786765,6.4398618 C20.9873992,-0.215637121 29.8090907,-1.31837786 40.0437507,3.13163956 C46.1095778,5.76905358 52.0001026,9.9238445 56.5634499,17.2253046 C67.2194468,34.2751435 66.4416443,56.297868 54.2300424,83.2934783 C52.9834596,67.627215 47.825392,51.7613738 38.7558394,35.6959547 C29.6862869,19.6305356 21.2938993,9.87850466 13.5786765,6.4398618 Z" id="Path-4"></path>
                    <path d="M7.79678176,13.3806418 C15.9881434,17.4363801 23.6094034,25.7371384 30.6605616,38.2829165 C37.7117199,50.8286947 42.9290194,63.505065 46.3124603,76.3120276 C41.1510868,70.8237216 35.9337873,66.4460502 30.6605616,63.1790135 C22.7507232,58.2784583 17.6449652,55.7576577 12.5214157,52.2458178 C5.34102523,47.3241551 -1.47799683,39.7573561 1.04383849,26.5630785 C1.96028492,21.768218 4.21126601,17.3740724 7.79678176,13.3806418 Z" id="Path-8"></path>
                </g>
            </g>
            <path d="M57,280.694269 C57,242.982393 96.6231949,234.197062 118.315625,226.288619 C130.024373,222.019942 157.838078,215.590402 201.756739,207 L206.511522,207.488603 C172.459484,217.877435 150.622701,225.837802 141.001173,231.369704 C117.818942,244.698338 114.716608,259.437572 117.755565,267.873123 C125.151895,288.403884 156.353892,299.037884 191.750613,308.429953 C228.732261,318.7562 289.487827,334.017757 311.676816,365.453781 C333.865805,396.889805 333.865805,435.36956 298.997394,460.874978 C293.627263,464.803101 274.225068,476.157754 248.808013,481.604219 C186.36172,494.985451 128.953506,487.204481 110.359236,481.604219 C93.0723479,477.062998 67.6174215,466.862439 73.4093375,460.874978 C104.534183,428.699304 157.90707,404.06001 129.378369,354.057065 C112.735234,324.886238 57,318.406146 57,280.694269 Z" id="Path"></path>
        </g>
    </g>
</svg>