<?xml version="1.0" encoding="UTF-8"?>
<svg width="778px" height="778px" viewBox="0 0 778 778" version="1.1" xmlns="http://www.w3.org/2000/svg" xmlns:xlink="http://www.w3.org/1999/xlink">
    <!-- Generator: Sketch 55.2 (78181) - https://sketchapp.com -->
    <title>logo-bg</title>
    <desc>Created with Sketch.</desc>
    <g id="logo-bg" stroke="none" stroke-width="1" fill="none" fill-rule="evenodd">
        <circle id="Oval" fill="#1C4D65" cx="389" cy="389" r="373"></circle>
        <g id="Logo" transform="translate(192.000000, 130.000000)" fill="#FFFFFF">
            <g id="Leaves">
                <g id="Group" transform="translate(143.301136, 167.652174) scale(-1, 1) translate(-143.301136, -167.652174) translate(109.301136, 123.152174)">
                    <path d="M14.4121829,6.83820376 C22.2756789,-0.228975499 31.6388764,-1.39992701 42.5017756,3.32534923 C48.9399442,6.12590226 55.1920499,10.5376906 60.0355114,18.2907874 C71.3456104,36.3952554 70.5200637,59.7802104 57.5588712,88.4456522 C56.2357688,71.8103417 50.761081,54.9631082 41.1348078,37.9039519 C31.5085346,20.8447956 22.6009929,10.4895462 14.4121829,6.83820376 Z" id="Path-4"></path>
                    <path d="M8.27537537,14.2083103 C16.9695513,18.5149191 25.0586307,27.3291263 32.5426136,40.650932 C40.0265965,53.9727376 45.5641521,67.4332134 49.1552804,81.0323592 C43.6770838,75.2045704 38.1395282,70.5561152 32.5426136,67.0869937 C24.1472418,61.8833114 18.7280746,59.206585 13.2900238,55.4775178 C5.66887595,50.2514224 -1.56872142,42.216574 1.10791293,28.2061555 C2.08061404,23.1147057 4.46976818,18.4487573 8.27537537,14.2083103 Z" id="Path-8"></path>
                </g>
                <g id="Group" transform="translate(107.392045, 69.130435) scale(-1, 1) translate(-107.392045, -69.130435) translate(73.392045, 24.630435)">
                    <path d="M14.4121829,6.83820376 C22.2756789,-0.228975499 31.6388764,-1.39992701 42.5017756,3.32534923 C48.9399442,6.12590226 55.1920499,10.5376906 60.0355114,18.2907874 C71.3456104,36.3952554 70.5200637,59.7802104 57.5588712,88.4456522 C56.2357688,71.8103417 50.761081,54.9631082 41.1348078,37.9039519 C31.5085346,20.8447956 22.6009929,10.4895462 14.4121829,6.83820376 Z" id="Path-4"></path>
                    <path d="M8.27537537,14.2083103 C16.9695513,18.5149191 25.0586307,27.3291263 32.5426136,40.650932 C40.0265965,53.9727376 45.5641521,67.4332134 49.1552804,81.0323592 C43.6770838,75.2045704 38.1395282,70.5561152 32.5426136,67.0869937 C24.1472418,61.8833114 18.7280746,59.206585 13.2900238,55.4775178 C5.66887595,50.2514224 -1.56872142,42.216574 1.10791293,28.2061555 C2.08061404,23.1147057 4.46976818,18.4487573 8.27537537,14.2083103 Z" id="Path-8"></path>
                </g>
                <g id="Group" transform="translate(202.775568, 44.500000) scale(-1, 1) translate(-202.775568, -44.500000) translate(168.775568, 0.000000)">
                    <path d="M14.4121829,6.83820376 C22.2756789,-0.228975499 31.6388764,-1.39992701 42.5017756,3.32534923 C48.9399442,6.12590226 55.1920499,10.5376906 60.0355114,18.2907874 C71.3456104,36.3952554 70.5200637,59.7802104 57.5588712,88.4456522 C56.2357688,71.8103417 50.761081,54.9631082 41.1348078,37.9039519 C31.5085346,20.8447956 22.6009929,10.4895462 14.4121829,6.83820376 Z" id="Path-4"></path>
                    <path d="M8.27537537,14.2083103 C16.9695513,18.5149191 25.0586307,27.3291263 32.5426136,40.650932 C40.0265965,53.9727376 45.5641521,67.4332134 49.1552804,81.0323592 C43.6770838,75.2045704 38.1395282,70.5561152 32.5426136,67.0869937 C24.1472418,61.8833114 18.7280746,59.206585 13.2900238,55.4775178 C5.66887595,50.2514224 -1.56872142,42.216574 1.10791293,28.2061555 C2.08061404,23.1147057 4.46976818,18.4487573 8.27537537,14.2083103 Z" id="Path-8"></path>
                </g>
                <g id="Group" transform="translate(267.073864, 40.304348)">
                    <path d="M14.4121829,6.83820376 C22.2756789,-0.228975499 31.6388764,-1.39992701 42.5017756,3.32534923 C48.9399442,6.12590226 55.1920499,10.5376906 60.0355114,18.2907874 C71.3456104,36.3952554 70.5200637,59.7802104 57.5588712,88.4456522 C56.2357688,71.8103417 50.761081,54.9631082 41.1348078,37.9039519 C31.5085346,20.8447956 22.6009929,10.4895462 14.4121829,6.83820376 Z" id="Path-4"></path>
                    <path d="M8.27537537,14.2083103 C16.9695513,18.5149191 25.0586307,27.3291263 32.5426136,40.650932 C40.0265965,53.9727376 45.5641521,67.4332134 49.1552804,81.0323592 C43.6770838,75.2045704 38.1395282,70.5561152 32.5426136,67.0869937 C24.1472418,61.8833114 18.7280746,59.206585 13.2900238,55.4775178 C5.66887595,50.2514224 -1.56872142,42.216574 1.10791293,28.2061555 C2.08061404,23.1147057 4.46976818,18.4487573 8.27537537,14.2083103 Z" id="Path-8"></path>
                </g>
                <g id="Group" transform="translate(210.965909, 108.597826)">
                    <path d="M14.4121829,6.83820376 C22.2756789,-0.228975499 31.6388764,-1.39992701 42.5017756,3.32534923 C48.9399442,6.12590226 55.1920499,10.5376906 60.0355114,18.2907874 C71.3456104,36.3952554 70.5200637,59.7802104 57.5588712,88.4456522 C56.2357688,71.8103417 50.761081,54.9631082 41.1348078,37.9039519 C31.5085346,20.8447956 22.6009929,10.4895462 14.4121829,6.83820376 Z" id="Path-4"></path>
                    <path d="M8.27537537,14.2083103 C16.9695513,18.5149191 25.0586307,27.3291263 32.5426136,40.650932 C40.0265965,53.9727376 45.5641521,67.4332134 49.1552804,81.0323592 C43.6770838,75.2045704 38.1395282,70.5561152 32.5426136,67.0869937 C24.1472418,61.8833114 18.7280746,59.206585 13.2900238,55.4775178 C5.66887595,50.2514224 -1.56872142,42.216574 1.10791293,28.2061555 C2.08061404,23.1147057 4.46976818,18.4487573 8.27537537,14.2083103 Z" id="Path-8"></path>
                </g>
                <g id="Group" transform="translate(263.707386, 219.434783)">
                    <path d="M14.4121829,6.83820376 C22.2756789,-0.228975499 31.6388764,-1.39992701 42.5017756,3.32534923 C48.9399442,6.12590226 55.1920499,10.5376906 60.0355114,18.2907874 C71.3456104,36.3952554 70.5200637,59.7802104 57.5588712,88.4456522 C56.2357688,71.8103417 50.761081,54.9631082 41.1348078,37.9039519 C31.5085346,20.8447956 22.6009929,10.4895462 14.4121829,6.83820376 Z" id="Path-4"></path>
                    <path d="M8.27537537,14.2083103 C16.9695513,18.5149191 25.0586307,27.3291263 32.5426136,40.650932 C40.0265965,53.9727376 45.5641521,67.4332134 49.1552804,81.0323592 C43.6770838,75.2045704 38.1395282,70.5561152 32.5426136,67.0869937 C24.1472418,61.8833114 18.7280746,59.206585 13.2900238,55.4775178 C5.66887595,50.2514224 -1.56872142,42.216574 1.10791293,28.2061555 C2.08061404,23.1147057 4.46976818,18.4487573 8.27537537,14.2083103 Z" id="Path-8"></path>
                </g>
                <g id="Group" transform="translate(326.548295, 146.663043)">
                    <path d="M14.4121829,6.83820376 C22.2756789,-0.228975499 31.6388764,-1.39992701 42.5017756,3.32534923 C48.9399442,6.12590226 55.1920499,10.5376906 60.0355114,18.2907874 C71.3456104,36.3952554 70.5200637,59.7802104 57.5588712,88.4456522 C56.2357688,71.8103417 50.761081,54.9631082 41.1348078,37.9039519 C31.5085346,20.8447956 22.6009929,10.4895462 14.4121829,6.83820376 Z" id="Path-4"></path>
                    <path d="M8.27537537,14.2083103 C16.9695513,18.5149191 25.0586307,27.3291263 32.5426136,40.650932 C40.0265965,53.9727376 45.5641521,67.4332134 49.1552804,81.0323592 C43.6770838,75.2045704 38.1395282,70.5561152 32.5426136,67.0869937 C24.1472418,61.8833114 18.7280746,59.206585 13.2900238,55.4775178 C5.66887595,50.2514224 -1.56872142,42.216574 1.10791293,28.2061555 C2.08061404,23.1147057 4.46976818,18.4487573 8.27537537,14.2083103 Z" id="Path-8"></path>
                </g>
                <g id="Group" transform="translate(34.451705, 164.293478) scale(-1, 1) translate(-34.451705, -164.293478) translate(0.451705, 119.793478)">
                    <path d="M14.4121829,6.83820376 C22.2756789,-0.228975499 31.6388764,-1.39992701 42.5017756,3.32534923 C48.9399442,6.12590226 55.1920499,10.5376906 60.0355114,18.2907874 C71.3456104,36.3952554 70.5200637,59.7802104 57.5588712,88.4456522 C56.2357688,71.8103417 50.761081,54.9631082 41.1348078,37.9039519 C31.5085346,20.8447956 22.6009929,10.4895462 14.4121829,6.83820376 Z" id="Path-4"></path>
                    <path d="M8.27537537,14.2083103 C16.9695513,18.5149191 25.0586307,27.3291263 32.5426136,40.650932 C40.0265965,53.9727376 45.5641521,67.4332134 49.1552804,81.0323592 C43.6770838,75.2045704 38.1395282,70.5561152 32.5426136,67.0869937 C24.1472418,61.8833114 18.7280746,59.206585 13.2900238,55.4775178 C5.66887595,50.2514224 -1.56872142,42.216574 1.10791293,28.2061555 C2.08061404,23.1147057 4.46976818,18.4487573 8.27537537,14.2083103 Z" id="Path-8"></path>
                </g>
            </g>
            <path d="M59,298.136832 C59,258.151544 101.117989,248.836602 124.176238,240.451408 C136.622204,235.925399 166.187142,229.108263 212.871052,220 L217.92521,220.518057 C181.729155,231.533167 158.517464,239.973415 148.290136,245.8388 C123.648283,259.970933 120.350616,275.598702 123.580916,284.542779 C131.44294,306.31121 164.609507,317.586267 202.234911,327.544524 C241.545033,338.493276 306.125949,354.674856 329.712023,388.005959 C353.298096,421.337063 353.298096,462.136519 316.234266,489.179498 C310.526016,493.344423 289.902202,505.383576 262.884814,511.158374 C196.506717,525.346276 135.483912,517.09624 115.718891,511.158374 C97.3435698,506.343392 70.2859258,495.527905 76.442518,489.179498 C109.527076,455.064156 166.260478,428.939514 135.935526,375.922207 C118.244489,344.992855 59,338.122119 59,298.136832 Z" id="Path"></path>
        </g>
    </g>
</svg>